<svg id="Layer_1" data-name="Layer 1" xmlns="http://www.w3.org/2000/svg" viewBox="0 0 2180.71 839.25"><defs><style>.cls-1{fill:#f16223;}.cls-2{fill:#8eabd2;}.cls-3{fill:#c2c4c7;}.cls-4{fill:#040607;}.cls-5{fill:#333;}.cls-6{fill:#3e5e8f;}.cls-7{fill:#9aadc5;}.cls-8{fill:none;stroke:#000;stroke-miterlimit:10;}.cls-9{fill:#527cbd;}</style></defs><title>infosight-new-logo-1</title><path class="cls-1" d="M598.12,494.55c-4.18,0-6.3-2-6.3-6V309.15c0-4,2.12-6,6.3-6h29.53c4,0,6,2,6,6V488.52c0,4-2,6-6,6Z"/><path class="cls-1" d="M627.65,303.14q6,0,6,6V488.53q0,6-6,6H598.12q-6.3,0-6.29-6V309.16q0-6,6.29-6Z"/><path class="cls-1" d="M844.21,494.55c-4,0-6-2-6-6V409.23a81.1,81.1,0,0,0-1.09-14.35,18.48,18.48,0,0,0-4.24-9.29,17.94,17.94,0,0,0-8.61-4.92,55.41,55.41,0,0,0-14.22-1.5H737.29a59.25,59.25,0,0,0-14.49,1.5,19.8,19.8,0,0,0-9.16,4.92,18.83,18.83,0,0,0-4.78,9.29,64.39,64.39,0,0,0-1.37,14.35v79.29c0,4-2,6-6,6h-26.8c-4.18,0-6.3-2-6.3-6V399.93c0-9.8,1.1-18.31,3.28-25.29a37.63,37.63,0,0,1,10.8-17.23c5-4.45,11.71-7.76,20-9.85s18.71-3.14,31-3.14h78.47c12.15,0,22.54,1.06,30.9,3.14s15.11,5.4,20.1,9.85a37.68,37.68,0,0,1,10.8,17.23c2.18,7,3.28,15.5,3.28,25.29v88.59c0,4-2,6-6,6H844.21Z"/><path class="cls-1" d="M811.94,344.43q18.31,0,30.9,3.14t20.1,9.84a37.5,37.5,0,0,1,10.8,17.23Q877,385.17,877,399.93v88.59q0,6-6,6H844.2q-6,0-6-6V409.23a81.06,81.06,0,0,0-1.09-14.36,18.35,18.35,0,0,0-4.24-9.3,17.78,17.78,0,0,0-8.61-4.92,55.3,55.3,0,0,0-14.22-1.5H737.29a58.53,58.53,0,0,0-14.49,1.5,19.66,19.66,0,0,0-9.16,4.92,18.83,18.83,0,0,0-4.79,9.3,64.55,64.55,0,0,0-1.37,14.36v79.29q0,6-6,6h-26.8q-6.28,0-6.29-6V399.93q0-14.76,3.28-25.29a37.42,37.42,0,0,1,10.8-17.23q7.51-6.69,20-9.84t31-3.14h78.5Z"/><path class="cls-1" d="M935.53,494.55c-4,0-6-2-6-6V376.69H903.26c-3.27,0-4.93-1.65-4.93-4.92V349.35c0-3.27,1.66-4.93,4.93-4.93h26.25v-5.73A108.26,108.26,0,0,1,932,313.94a35.94,35.94,0,0,1,8.75-16.82c4.17-4.35,9.87-7.62,17-9.71s16.2-3.14,27.07-3.14h33.08c3.27,0,4.93,1.66,4.93,4.93v22.42c0,3.27-1.66,4.93-4.93,4.93H991.3c-8.89,0-15,1.79-18.17,5.33s-4.78,9.19-4.78,16.81v5.74h47.84c3.27,0,4.93,1.65,4.93,4.92v22.42c0,3.27-1.66,4.93-4.93,4.93H968.34V488.52c0,4-2,6-6,6Z"/><path class="cls-1" d="M929.51,344.43v-5.74A107.59,107.59,0,0,1,932,313.94a35.81,35.81,0,0,1,8.75-16.82q6.28-6.56,16.95-9.71t27.07-3.14h33.08q4.92,0,4.92,4.92v22.42q0,4.92-4.92,4.92H991.3q-13.39,0-18.18,5.33t-4.79,16.82v5.74h47.85q4.92,0,4.92,4.92v22.42q0,4.92-4.92,4.92H968.33V488.51q0,6-6,6h-26.8q-6,0-6-6V376.68H903.24q-4.92,0-4.92-4.92V349.34q0-4.92,4.92-4.92h26.27Z"/><path class="cls-1" d="M1107.51,494.55c-12.35,0-22.79-1-31-3s-15-5.26-20-9.71a37.58,37.58,0,0,1-10.8-17.23c-2.18-7-3.28-15.49-3.28-25.29V399.94c0-9.8,1.1-18.31,3.28-25.29a37.58,37.58,0,0,1,10.8-17.23c5-4.45,11.71-7.76,20-9.85s18.71-3.14,31-3.14h77.38c12.15,0,22.54,1.06,30.9,3.14s15.11,5.4,20.1,9.85a37.68,37.68,0,0,1,10.8,17.23c2.18,7,3.28,15.5,3.28,25.29v39.37c0,9.8-1.1,18.31-3.28,25.29a37.63,37.63,0,0,1-10.8,17.23c-5,4.45-11.75,7.71-20.1,9.71s-18.73,3-30.9,3h-77.37Zm3.83-117.85a64.24,64.24,0,0,0-14.49,1.37,18.3,18.3,0,0,0-9.16,4.92,19.65,19.65,0,0,0-4.78,9.29,62.54,62.54,0,0,0-1.37,14.22v26a64,64,0,0,0,1.37,14.49,18.94,18.94,0,0,0,4.78,9.16,19.8,19.8,0,0,0,9.16,4.92,58.53,58.53,0,0,0,14.49,1.5h69.72a60.38,60.38,0,0,0,14.76-1.5,19.71,19.71,0,0,0,9.16-4.92,18.85,18.85,0,0,0,4.78-9.16,64.18,64.18,0,0,0,1.37-14.49v-26a62.78,62.78,0,0,0-1.37-14.22A19.83,19.83,0,0,0,1205,383a18.3,18.3,0,0,0-9.16-4.92,65.73,65.73,0,0,0-14.76-1.37Z"/><path class="cls-1" d="M1184.89,344.43q18.31,0,30.9,3.14t20.1,9.84a37.5,37.5,0,0,1,10.8,17.23q3.29,10.53,3.28,25.29V439.3q0,14.76-3.28,25.29a37.5,37.5,0,0,1-10.8,17.23q-7.53,6.71-20.1,9.71t-30.9,3h-77.38q-18.6,0-31-3t-20-9.71a37.37,37.37,0,0,1-10.8-17.23q-3.29-10.53-3.28-25.29V399.93q0-14.76,3.28-25.29a37.42,37.42,0,0,1,10.8-17.23q7.51-6.69,20-9.84t31-3.14Zm-103.35,88a63.49,63.49,0,0,0,1.37,14.49,18.66,18.66,0,0,0,4.79,9.16,19.66,19.66,0,0,0,9.16,4.92,58.59,58.59,0,0,0,14.49,1.5h69.72a60,60,0,0,0,14.77-1.5,19.66,19.66,0,0,0,9.16-4.92,18.73,18.73,0,0,0,4.78-9.16,64.06,64.06,0,0,0,1.37-14.49v-26a62.66,62.66,0,0,0-1.37-14.22A19.73,19.73,0,0,0,1205,383a18.18,18.18,0,0,0-9.16-4.92,65.64,65.64,0,0,0-14.77-1.37h-69.72a64.06,64.06,0,0,0-14.49,1.37,18.18,18.18,0,0,0-9.16,4.92,19.65,19.65,0,0,0-4.79,9.3,62.66,62.66,0,0,0-1.37,14.22Z"/><path class="cls-1" d="M1286.33,494.55c-4.18,0-6.3-2-6.3-6v-26c0-4,2.12-6,6.3-6h143.55c5.26,0,9-1.38,11.2-4.1s3.28-6.49,3.28-11.2V430c0-10.15-4.78-15.3-14.21-15.3H1327.62c-15.79,0-27.84-4.09-35.83-12.17s-12-19.8-12-34.87v-20c0-13.25,4-24.11,11.76-32.27s20.13-12.31,36.65-12.31h144.92c4,0,6,2,6,6v26c0,4-2,6-6,6h-137c-5.26,0-9,1.38-11.2,4.1s-3.28,6.49-3.28,11.2v9.3c0,10.15,4.78,15.3,14.21,15.3h102.53c15.78,0,27.83,4.09,35.83,12.17s12,19.81,12,34.87V450c0,13.24-4,24.1-11.76,32.27s-20.13,12.31-36.65,12.31Z"/><path class="cls-1" d="M1473.08,303.14q6,0,6,6v26q0,6-6,6h-137q-7.93,0-11.21,4.1t-3.28,11.21v9.3q0,15.32,14.22,15.31h102.53q23.79,0,35.82,12.17t12,34.86V450q0,20-11.76,32.26t-36.64,12.3H1286.32q-6.28,0-6.29-6v-26q0-6,6.29-6h143.55q7.92,0,11.21-4.1t3.28-11.21V430q0-15.31-14.22-15.31H1327.61q-23.79,0-35.82-12.17t-12-34.86v-20q0-19.95,11.76-32.26t36.64-12.3Z"/><path class="cls-1" d="M1522.84,494.55c-4,0-6-2-6-6V350.71c0-4.18,2-6.3,6-6.3h26.8c4,0,6,2.12,6,6.3V488.52c0,4-2,6-6,6Zm0-167.34c-4.18,0-6.3-2.12-6.3-6.3v-26c0-4,2.12-6,6.3-6h26.8c4,0,6,2,6,6v26c0,4.18-2,6.3-6,6.3Z"/><path class="cls-1" d="M1549.63,288.92q6,0,6,6v26q0,6.3-6,6.29h-26.8q-6.3,0-6.29-6.29v-26q0-6,6.29-6Zm0,55.51q6,0,6,6.29V488.53q0,6-6,6h-26.8q-6,0-6-6V350.72q0-6.29,6-6.29Z"/><path class="cls-1" d="M1600.76,555c-3.27,0-4.93-1.66-4.93-4.93v-23c0-3.27,1.66-4.93,4.93-4.93h125a60.55,60.55,0,0,0,14.76-1.5,19.8,19.8,0,0,0,9.16-4.92,19,19,0,0,0,4.78-9.29,66.09,66.09,0,0,0,1.37-14.63v-7.11H1653c-12.35,0-22.79-1.05-31-3.13s-15-5.4-20-9.84a37.58,37.58,0,0,1-10.8-17.23c-2.18-7-3.28-15.58-3.28-25.57V400.21c0-10,1.1-18.58,3.28-25.57a37.58,37.58,0,0,1,10.8-17.23c5-4.45,11.71-7.76,20-9.85s18.71-3.14,31-3.14h76.56c12.33,0,22.77,1.06,31,3.14s15,5.36,20.1,9.71a35.41,35.41,0,0,1,10.8,17.09c2.09,7,3.14,15.51,3.14,25.29v99.53c0,10-1.06,18.57-3.14,25.57a36.26,36.26,0,0,1-10.8,17.23c-5.08,4.44-11.85,7.76-20.1,9.85s-18.71,3.14-31,3.14H1600.76Zm56-178.27a64.24,64.24,0,0,0-14.49,1.37,20.33,20.33,0,0,0-9.16,4.51,16.81,16.81,0,0,0-4.78,8.06,44.29,44.29,0,0,0-1.37,11.75v26.25a43.9,43.9,0,0,0,1.37,11.89,16.78,16.78,0,0,0,4.78,7.92,20.13,20.13,0,0,0,9.16,4.51,64,64,0,0,0,14.49,1.37h99V403.21c0-9.61-2.08-16.51-6.16-20.5s-12.13-6-23.92-6Z"/><path class="cls-1" d="M1729.55,344.43q18.59,0,31,3.14t20.1,9.71a35.2,35.2,0,0,1,10.8,17.09q3.13,10.53,3.14,25.29v99.53q0,15-3.14,25.57a36.09,36.09,0,0,1-10.8,17.23q-7.67,6.69-20.1,9.84t-31,3.14H1600.77q-4.92,0-4.92-4.92v-23q0-4.92,4.92-4.92h125a60,60,0,0,0,14.77-1.5,19.66,19.66,0,0,0,9.16-4.92,18.82,18.82,0,0,0,4.78-9.3,66,66,0,0,0,1.37-14.63V484.7H1653q-18.6,0-31-3.14t-20-9.84a37.37,37.37,0,0,1-10.8-17.23q-3.29-10.53-3.28-25.57V400.21q0-15,3.28-25.57a37.42,37.42,0,0,1,10.8-17.23q7.52-6.69,20-9.84t31-3.14h76.55ZM1627,428.64a43.56,43.56,0,0,0,1.37,11.89,16.67,16.67,0,0,0,4.79,7.93,20.08,20.08,0,0,0,9.16,4.51,64.12,64.12,0,0,0,14.49,1.37h99V403.21q0-14.49-6.15-20.51t-23.93-6h-68.9a64.06,64.06,0,0,0-14.49,1.37,20.18,20.18,0,0,0-9.16,4.51,16.81,16.81,0,0,0-4.79,8.07A44.37,44.37,0,0,0,1627,402.4v26.25Z"/><path class="cls-1" d="M2002.15,494.55c-4,0-6-2-6-6V409.23a81.1,81.1,0,0,0-1.09-14.35,18.48,18.48,0,0,0-4.24-9.29,17.94,17.94,0,0,0-8.61-4.92,55.38,55.38,0,0,0-14.21-1.5H1867.62V488.53c0,4-2,6-6,6h-26.79c-4,0-6-2-6-6v-193c0-4,2-6,6-6h26.79c4,0,6,2,6,6v48.94h102.25c12.15,0,22.54,1.05,30.9,3.13s15.11,5.4,20.1,9.85a37.68,37.68,0,0,1,10.8,17.23c2.18,7,3.28,15.5,3.28,25.29v88.59c0,4-2,6-6,6h-26.78Z"/><path class="cls-1" d="M1861.61,289.47q6,0,6,6v48.94h102.26q18.31,0,30.9,3.14t20.1,9.84a37.5,37.5,0,0,1,10.8,17.23q3.29,10.53,3.28,25.29v88.59q0,6-6,6h-26.8q-6,0-6-6V409.23a81.06,81.06,0,0,0-1.09-14.36,18.35,18.35,0,0,0-4.24-9.3,17.78,17.78,0,0,0-8.61-4.92,55.3,55.3,0,0,0-14.22-1.5H1867.62V488.52q0,6-6,6h-26.8q-6,0-6-6v-193q0-6,6-6h26.81Z"/><path class="cls-1" d="M2142.69,494.55c-10.9,0-20-1-27.07-3s-12.83-5.22-17.09-9.57a35.31,35.31,0,0,1-8.89-17,110,110,0,0,1-2.46-24.88V376.7h-26c-3.27,0-4.93-1.65-4.93-4.92V349.36c0-3.27,1.66-4.93,4.93-4.93h26V308.35c0-4,2-6,6-6h27.07c4,0,6,2,6,6v36.09h47.84c3.27,0,4.93,1.65,4.93,4.92v22.42c0,3.27-1.66,4.93-4.93,4.93h-47.85v63.42c0,7.62,1.57,13.28,4.66,16.81s9.24,5.33,18.31,5.33h26.52c3.27,0,4.93,1.66,4.93,4.93v22.42c0,3.27-1.66,4.93-4.93,4.93h-33.09Z"/><path class="cls-1" d="M2087.18,344.43V308.34q0-6,6-6h27.07q6,0,6,6v36.09h47.85q4.92,0,4.92,4.92v22.42q0,4.92-4.92,4.92h-47.85v63.43q0,11.49,4.65,16.82t18.32,5.33h26.52q4.92,0,4.92,4.92v22.42q0,4.92-4.92,4.92H2142.7q-16.41,0-27.07-3T2098.54,482a35.14,35.14,0,0,1-8.89-16.95,109.34,109.34,0,0,1-2.46-24.88V376.69h-26q-4.92,0-4.92-4.92V349.35q0-4.92,4.92-4.92h26Z"/><polygon class="cls-2" points="672.05 710.29 664.26 688 657.54 662.82 650.85 688 643.06 710.28 621.38 710.29 594.97 634.59 615.74 634.57 632.99 691.2 649.3 634.58 665.64 634.57 682.13 691.2 699.36 634.58 719.97 634.57 693.73 710.29 672.05 710.29"/><path class="cls-2" d="M665.64,634.58l16.48,56.62,17.24-56.62H720l-26.25,75.69H672L664.26,688l-6.71-25.18L650.84,688l-7.78,22.28H621.39L595,634.58h20.75L633,691.2l16.33-56.62Z"/><polygon class="cls-2" points="811.23 710.29 803.44 688 796.72 662.82 790.03 688 782.25 710.28 760.57 710.29 734.16 634.59 754.92 634.57 772.17 691.2 788.48 634.58 804.82 634.57 821.31 691.2 838.54 634.58 859.15 634.57 832.91 710.29 811.23 710.29"/><path class="cls-2" d="M804.82,634.58,821.3,691.2l17.24-56.62h20.6l-26.25,75.69H811.22L803.44,688l-6.71-25.18L790,688l-7.78,22.28H760.57l-26.4-75.69h20.75l17.24,56.62,16.33-56.62Z"/><polygon class="cls-2" points="950.41 710.29 942.62 688 935.9 662.82 929.21 688 921.43 710.28 899.75 710.29 873.33 634.59 894.1 634.57 911.35 691.2 927.66 634.58 944 634.57 960.49 691.2 977.72 634.58 998.33 634.57 972.09 710.29 950.41 710.29"/><path class="cls-2" d="M944,634.58l16.48,56.62,17.25-56.62h20.6l-26.25,75.69H950.41L942.63,688l-6.71-25.18L929.21,688l-7.78,22.28H899.76l-26.4-75.69h20.75l17.25,56.62,16.33-56.62H944Z"/><path class="cls-2" d="M1024.58,711.24c-5.3,0-11-3.41-11-10.88s5.7-10.88,11-10.88,11,3.41,11,10.88S1029.88,711.24,1024.58,711.24Z"/><path class="cls-2" d="M1035.57,700.36c0,14.5-22,14.5-22,0S1035.57,685.86,1035.57,700.36Z"/><path class="cls-2" d="M1051,710V634.43h18.62V710H1051Zm9.31-85.57c-5.3,0-11-3.41-11-10.88s5.7-10.88,11-10.88,11,3.41,11,10.88S1065.59,624.41,1060.29,624.41Z"/><path class="cls-2" d="M1071.28,613.52c0,14.5-22,14.5-22,0S1071.28,599,1071.28,613.52ZM1051,634.43V710h18.62V634.43Z"/><path class="cls-2" d="M1141.78,710V670.6c0-12.42-7-20.13-18.16-20.13s-19.22,9-19.22,21V710h-18.48V634.59h16.64l1.23,10.22c8-7.82,15.58-11.3,24.71-11.3,19.08,0,31.91,14.85,31.91,36.94V710h-18.63Z"/><path class="cls-2" d="M1141.78,710V670.6c0-11.44-6.26-20.14-18.16-20.14s-19.23,9.61-19.23,21.06V710h-18.47V634.59h16.63l1.22,10.22c7.63-7.48,15.26-11.29,24.72-11.29,17.7,0,31.89,13.28,31.89,36.93V710h-18.6Z"/><path class="cls-2" d="M1182.53,710V652.13h-14V635.79h14v-5c0-21.75,15.45-29.46,28.69-29.46a36.5,36.5,0,0,1,19.54,6.11l-6.86,13.9c-4.15-2.7-7.79-4-11.45-4-7.07,0-11.28,5-11.28,13.42v5h22.12v16.33h-22.14V710h-18.62Z"/><path class="cls-2" d="M1182.53,710V652.13h-14V635.8h14v-5c0-20.14,13.58-29.45,28.69-29.45a36.33,36.33,0,0,1,19.53,6.1l-6.87,13.89c-4-2.59-7.63-4-11.45-4-6.41,0-11.29,4.27-11.29,13.43v5h22.13v16.33h-22.13V710h-18.61Z"/><path class="cls-2" d="M1267.23,711.66c-23,0-39.08-16.13-39.08-39.23s16.37-39.23,38.92-39.23,39.38,16.5,39.38,39.23-16.13,39.23-39.23,39.23Zm0-61.5c-14,0-20.44,11.54-20.44,22.27s6.4,22.12,20.44,22.12,20.44-11.47,20.44-22.12S1280,650.16,1267.23,650.16Z"/><path class="cls-2" d="M1306.45,672.43c0,21.67-14.8,39.22-39.22,39.22s-39.07-17.55-39.07-39.22,15-39.22,38.92-39.22,39.37,17.7,39.37,39.22Zm-59.67,0c0,11.44,6.87,22.13,20.45,22.13s20.45-10.68,20.45-22.13-7.94-22.28-20.45-22.28C1253.8,650.15,1246.78,661.14,1246.78,672.43Z"/><path class="cls-2" d="M1350,712.58c-11.38,0-23.47-1.63-34.8-13.43l9.16-13.29c5.5,6.11,17.86,10.38,26,10.53h.42c6.46,0,13.15-3.36,13.15-9,0-5.09-4.19-7.31-14.95-7.93-11.63-.88-31.14-5.07-31.14-23.36s20-23.51,31.75-23.51c12.78,0,21.27,2.87,29.31,9.92l-10.38,12.22c-4.94-4.64-10.68-6.71-18.63-6.71-8.72,0-13.72,2.72-13.72,7.47s4.59,7.63,14,8.23c15,1,32.21,4.58,32.21,24.12,0,12.31-10,24.73-32.36,24.73Z"/><path class="cls-2" d="M1368.41,654.73c-5.34-5-11.44-6.71-18.62-6.71-8.85,0-13.73,2.75-13.73,7.48s4.43,7.63,14,8.24c14.19.92,32.2,4.12,32.2,24.11,0,13.28-10.83,24.72-32.35,24.72-11.9,0-23.81-2-34.79-13.43l9.16-13.28c5.34,5.95,17.55,10.38,25.94,10.53,7,.15,13.58-3.51,13.58-9,0-5.19-4.27-7.33-15-7.94-14.19-1.07-31.13-6.26-31.13-23.35s18-23.5,31.74-23.5c11.75,0,20.6,2.29,29.3,9.92l-10.38,12.21Z"/><path class="cls-2" d="M1394.21,710V634.43h18.62V710h-18.62Zm9.31-85.57c-5.3,0-11-3.41-11-10.88s5.7-10.88,11-10.88,11,3.41,11,10.88S1408.82,624.41,1403.52,624.41Z"/><path class="cls-2" d="M1414.5,613.52c0,14.5-22,14.5-22,0S1414.5,599,1414.5,613.52Zm-20.3,20.91V710h18.62V634.43Z"/><path class="cls-2" d="M1464,757c-22.47,0-38.16-13.81-38.16-33.58h18.47c0,9.22,8.47,16.17,19.69,16.17s19.07-6.5,19.07-16.17c0-10.37-9.88-15.1-19.07-15.1-23.54,0-38.16-14.51-38.16-37.86s15.69-38.16,38.16-38.16c5.09,0,11.65.49,17.25,4.27l7.46-9.46,13.75,10.38-8.39,10.7c5.34,6,7.94,13.32,7.94,22.27,0,4.89-1.14,21.36-15.88,28.09,10.77,5.37,15.57,13,15.57,24.87,0,20.09-15.15,33.58-37.7,33.58Zm0-107.74c-11.58,0-19.68,8.72-19.68,21.2s8.09,20.9,19.68,20.9,19.52-8.59,19.52-20.9S1475.26,649.24,1464,649.24Z"/><path class="cls-2" d="M1488.67,627.1l13.73,10.38L1494,648.16c5.8,6.56,7.93,14,7.93,22.28,0,9.31-3.51,22.43-15.87,28.08,12.51,6.26,15.57,15.26,15.57,24.88,0,20.75-15.87,33.57-37.69,33.57s-38.15-13.28-38.15-33.57h18.47c0,9.77,9,16.18,19.69,16.18s19.08-5.8,19.08-16.18-9.77-15.11-19.08-15.11c-23.5,0-38.15-14.34-38.15-37.85s17.09-38.15,38.15-38.15c6,0,12.06.76,17.24,4.27l7.48-9.46Zm-44.41,43.34c0,13.12,8.85,20.91,19.69,20.91s19.53-7.93,19.53-20.91-8.85-21.21-19.53-21.21S1444.26,657.32,1444.26,670.44Z"/><path class="cls-2" d="M1569.7,710V670.44c0-12.59-6.08-19.52-17.09-19.52S1534,659.77,1534,671.51V710h-18.63V603.14H1534V645c5.85-7.61,13.54-11.3,23.49-11.3,19.89,0,30.84,13,30.84,36.64V710Z"/><path class="cls-2" d="M1534,603.15V645c6.71-8.7,15-11.29,23.5-11.29,21.37,0,30.83,14.5,30.83,36.63V710H1569.7V670.45c0-13.73-7.17-19.53-17.09-19.53-11,0-18.62,9.31-18.62,20.6V710h-18.62V603.15Z"/><path class="cls-2" d="M1637.19,710.92c-7.77,0-14.19-2.4-18.57-6.93-4.62-4.78-7-11.7-7-20.58V650.9h-14v-16h14V615.5l18.63-2v21.38h20.76v16h-20.91v32.5c0,6.78,3.57,10.67,9.77,10.67a21.31,21.31,0,0,0,9-2.29l5.2,15.88a41.46,41.46,0,0,1-15.42,3.22l-1.49,0Z"/><path class="cls-2" d="M1630.29,613.52v21.37H1651v16h-20.91v32.51c0,7.17,4,10.68,9.77,10.68a21.28,21.28,0,0,0,9-2.29l5.19,15.87a41.47,41.47,0,0,1-15.41,3.2c-16.33.61-27-8.7-27-27.47V650.9h-14v-16h14V615.5l18.62-2Z"/><path class="cls-2" d="M1664.93,710V634.43h18.62V710h-18.62Zm9.31-85.57c-5.3,0-11-3.41-11-10.88s5.7-10.88,11-10.88,11,3.41,11,10.88S1679.54,624.41,1674.24,624.41Z"/><path class="cls-2" d="M1685.23,613.52c0,14.5-22,14.5-22,0S1685.23,599,1685.23,613.52Zm-20.3,20.91V710h18.62V634.43Z"/><path class="cls-2" d="M1755.73,710V670.6c0-12.42-7-20.13-18.16-20.13s-19.22,9-19.22,21V710h-18.48V634.59h16.64l1.23,10.22c8-7.82,15.58-11.3,24.71-11.3,19.08,0,31.9,14.85,31.9,36.94V710h-18.62Z"/><path class="cls-2" d="M1755.73,710V670.6c0-11.44-6.26-20.14-18.16-20.14s-19.23,9.61-19.23,21.06V710h-18.47V634.59h16.63l1.22,10.22c7.63-7.48,15.26-11.29,24.72-11.29,17.7,0,31.89,13.28,31.89,36.93V710h-18.6Z"/><path class="cls-2" d="M1825.94,712.27c-24.29,0-40-15.64-40-39.84s15.7-39.84,40-39.84c11.09,0,19.21,3.33,27.17,11.14l-11.75,12.38a23.06,23.06,0,0,0-15.12-6c-12.55,0-21.66,9.37-21.66,22.27,0,15.17,10.73,22,21.36,22,6.78,0,12.33-2.1,16.48-6.25L1855,700.36c-8.38,8.25-17.33,11.92-29,11.92Z"/><path class="cls-2" d="M1854.93,700.36c-8.7,8.55-17.86,11.9-29,11.9-21.82,0-40-13.12-40-39.83s18.16-39.83,40-39.83c10.68,0,18.92,3,27.16,11.14l-11.75,12.36a22.85,22.85,0,0,0-15.11-6c-12.51,0-21.67,9.16-21.67,22.28,0,14.34,9.77,22,21.37,22,6,0,11.9-1.68,16.48-6.26l12.51,12.21Z"/><path class="cls-2" d="M1873.7,711.24c-5.3,0-11-3.41-11-10.88s5.7-10.88,11-10.88,11,3.41,11,10.88S1879,711.24,1873.7,711.24Z"/><path class="cls-2" d="M1884.69,700.36c0,14.5-22,14.5-22,0S1884.69,685.86,1884.69,700.36Z"/><path class="cls-2" d="M1933.37,712.27c-24.29,0-40-15.64-40-39.84s15.7-39.84,40-39.84c11.09,0,19.21,3.33,27.17,11.14l-11.75,12.38a23.06,23.06,0,0,0-15.12-6c-12.55,0-21.66,9.37-21.66,22.27,0,15.17,10.73,22,21.36,22,6.78,0,12.33-2.1,16.48-6.25l12.53,12.21c-8.38,8.25-17.33,11.92-29,11.92Z"/><path class="cls-2" d="M1962.37,700.36c-8.7,8.55-17.85,11.9-29,11.9-21.82,0-40-13.12-40-39.83s18.16-39.83,40-39.83c10.68,0,18.92,3,27.16,11.14l-11.75,12.36a22.85,22.85,0,0,0-15.11-6c-12.51,0-21.67,9.16-21.67,22.28,0,14.34,9.77,22,21.37,22,6,0,11.9-1.68,16.48-6.26l12.51,12.21Z"/><path class="cls-2" d="M2007.69,711.66c-23,0-39.08-16.13-39.08-39.23s16.37-39.23,38.93-39.23,39.38,16.5,39.38,39.23-16.13,39.23-39.23,39.23Zm0-61.5c-14,0-20.44,11.54-20.44,22.27s6.4,22.12,20.44,22.12,20.44-11.47,20.44-22.12S2020.48,650.16,2007.69,650.16Z"/><path class="cls-2" d="M2046.91,672.43c0,21.67-14.8,39.22-39.22,39.22s-39.07-17.55-39.07-39.22,15-39.22,38.92-39.22S2046.91,650.91,2046.91,672.43Zm-59.67,0c0,11.44,6.87,22.13,20.45,22.13s20.45-10.68,20.45-22.13-7.94-22.28-20.45-22.28C1994.26,650.15,1987.24,661.14,1987.24,672.43Z"/><path class="cls-2" d="M2158.93,710v-40.6c0-11.46-5.31-18.3-14.19-18.3-10.71,0-16.32,9.36-16.32,18.61V710h-18.63V669.69c0-9.41-4.76-18.91-15.4-18.91s-16,9.51-16,18.91V710h-18.63V634.59H2077l1.38,9.15c5-9.64,16.44-10.38,19.83-10.38,6.17,0,17.26,1.82,22.29,14,6-9.5,13.73-13.74,25.17-13.74,20.87,0,31.9,12.35,31.9,35.72V710h-18.64Z"/><path class="cls-2" d="M2109.79,710V669.68c0-9.92-5.19-18.92-15.41-18.92s-16,9-16,18.92V710h-18.62V634.58H2077l1.37,9.16c4-7.63,12.67-10.38,19.84-10.38,9,0,18,3.66,22.28,14,6.72-10.68,15.41-13.73,25.18-13.73,21.37,0,31.89,13.12,31.89,35.71V710h-18.62V669.38c0-9.92-4.12-18.31-14.19-18.31s-16.33,8.7-16.33,18.62V710h-18.61Z"/><polygon class="cls-3" points="306.29 210.8 389.95 306.87 414.82 779.32 247.52 839.25 306.29 210.8"/><polygon class="cls-3" points="414.81 779.32 247.53 839.23 306.3 210.8 389.94 306.88 414.81 779.32"/><polygon class="cls-4" points="306.3 210.81 435.72 271.83 389.94 306.89 306.3 210.81"/><polygon class="cls-4" points="435.72 271.84 389.94 306.88 306.3 210.8 435.72 271.84"/><polygon class="cls-5" points="306.3 210.81 283.97 149.77 299.29 162.07 435.72 271.83 435.71 271.85 306.3 210.81"/><polygon class="cls-5" points="435.72 271.84 306.3 210.8 283.98 149.77 299.28 162.08 343.99 198.05 376.94 224.55 435.72 271.84"/><polygon class="cls-5" points="112.74 210.8 283.97 149.76 238.49 199.51 112.75 210.81 112.74 210.8"/><polygon class="cls-5" points="283.98 149.77 238.48 199.5 112.75 210.8 166.39 191.68 225.29 170.69 283.98 149.77"/><polygon class="cls-4" points="112.74 210.81 238.48 199.49 152.59 246.98 112.74 210.81"/><polygon class="cls-4" points="238.48 199.5 152.59 246.97 112.75 210.8 238.48 199.5"/><polygon class="cls-6" points="218.69 82.51 266.17 50.3 225.3 170.7 166.37 191.7 218.69 82.51"/><polygon class="cls-6" points="266.17 50.31 225.29 170.69 166.39 191.68 218.7 82.52 266.17 50.31"/><polygon class="cls-7" points="376.91 201.86 376.9 198.63 515.78 302.35 515.77 302.36 376.91 201.86"/><polygon class="cls-7" points="515.77 302.35 376.92 201.86 376.91 198.63 515.77 302.35"/><polygon class="cls-3" points="368.84 119.64 349.54 113.04 351.51 85.35 376.88 122.48 368.84 119.64"/><polygon class="cls-3" points="376.85 122.46 368.84 119.63 349.55 113.03 351.52 85.35 376.85 122.46"/><polygon class="cls-3" points="343.99 198.06 343.98 174.03 376.92 198.62 376.95 224.57 343.99 198.06"/><polygon class="cls-3" points="376.94 224.55 343.99 198.05 343.99 174.03 376.91 198.63 376.94 224.55"/><polygon class="cls-5" points="202.87 62.05 235.09 25.15 218.71 82.54 202.87 62.05"/><polygon class="cls-5" points="235.1 25.16 218.7 82.52 202.88 62.04 235.1 25.16"/><polygon class="cls-4" points="166.38 191.68 202.87 62.04 218.71 82.51 166.4 191.69 166.38 191.68"/><polygon class="cls-4" points="218.7 82.52 166.39 191.68 202.88 62.04 218.7 82.52"/><polygon class="cls-5" points="301.77 0.01 346.99 28.26 314.77 57.68 301.77 0.01"/><polygon class="cls-5" points="346.99 28.27 314.78 57.66 301.78 0.01 346.99 28.27"/><polygon class="cls-8" points="343.98 174.02 344 174.02 344 174.02 343.98 174.02"/><line class="cls-8" x1="343.99" y1="174.03" x2="343.99" y2="174.02"/><polygon class="cls-3" points="311.58 100.05 306.31 104.24 314.77 57.66 351.52 85.34 349.56 113.05 311.58 100.05"/><polygon class="cls-3" points="351.52 85.35 349.55 113.03 311.58 100.04 306.3 104.23 314.78 57.66 351.52 85.35"/><polygon class="cls-4" points="314.77 57.67 346.98 28.26 351.53 85.37 314.77 57.67"/><polygon class="cls-4" points="351.52 85.35 314.78 57.66 346.99 28.27 351.52 85.35"/><polygon class="cls-5" points="346.98 28.27 385.6 76.02 351.51 85.36 346.98 28.27"/><polygon class="cls-5" points="385.59 76.02 351.52 85.35 346.99 28.27 385.59 76.02"/><polygon class="cls-3" points="299.27 162.08 301.33 142.17 344 174.02 344 198.07 299.27 162.08"/><polygon class="cls-3" points="343.99 174.03 343.99 198.05 299.28 162.08 301.34 142.17 343.99 174.03"/><polygon class="cls-9" points="266.16 50.31 314.78 57.65 306.31 104.23 295.01 113.23 295.01 137.44 301.34 142.16 299.29 162.08 283.97 149.78 225.27 170.71 266.16 50.31"/><polygon class="cls-9" points="295 113.23 295 137.44 301.34 142.16 301.34 142.17 299.28 162.08 283.98 149.77 225.29 170.69 266.17 50.31 314.78 57.66 306.3 104.23 295 113.23"/><polygon class="cls-5" points="235.09 25.17 301.77 0 266.18 50.32 235.09 25.17"/><polygon class="cls-5" points="301.78 0.01 266.17 50.31 235.1 25.16 301.78 0.01"/><polygon class="cls-4" points="235.09 25.15 266.18 50.3 218.68 82.54 235.09 25.15"/><polygon class="cls-4" points="266.17 50.31 218.7 82.52 235.1 25.16 266.17 50.31"/><polygon class="cls-4" points="266.17 50.32 301.77 0 314.79 57.67 266.17 50.32"/><polygon class="cls-4" points="314.78 57.66 266.17 50.31 301.78 0.01 314.78 57.66"/><polygon class="cls-6" points="0 774.81 152.58 246.97 238.48 199.49 82.52 826.81 0 774.81"/><polygon class="cls-6" points="238.48 199.5 82.51 826.79 0 774.8 152.59 246.97 238.48 199.5"/><path class="cls-9" d="M180.36,834.18l10.08-128.89-24.29-15.81-31.64,13-52,124.32,156-627.3,67.83,11.3L247.54,839.25l-67.18-5.06ZM189.9,436.3l-13,61.87,47.46,7.06,6.2-68.38L212.2,420.76,189.89,436.3Zm27.69-139-13,58.48,41.53,7.9,7.34-66.11-17-12.14-18.92,11.86Z"/><path class="cls-9" d="M238.48,199.5l-156,627.29,52-124.32,31.65-13,24.3,15.82L180.36,834.17l67.17,5.06L306.31,210.8l-67.82-11.31ZM224.35,505.24l-47.47-7.07,13-61.88,22.32-15.54,18.36,16.1-6.22,68.38Zm21.76-141.57-41.54-7.91,13-58.49L236.5,285.4l17,12.15-7.35,66.12Z"/><polygon class="cls-4" points="204.57 355.77 217.57 297.27 236.5 285.4 253.47 297.55 246.12 363.68 204.57 355.77"/><polygon class="cls-4" points="253.46 297.55 246.11 363.67 204.58 355.76 217.58 297.27 236.5 285.4 253.46 297.55"/><polygon class="cls-4" points="176.88 498.18 189.88 436.29 212.2 420.74 230.58 436.85 224.36 505.25 176.88 498.18"/><polygon class="cls-4" points="230.57 436.85 224.36 505.24 176.88 498.17 189.89 436.29 212.21 420.75 230.57 436.85"/><polygon class="cls-4" points="82.51 826.8 134.49 702.47 166.15 689.46 190.45 705.29 180.37 834.18 82.51 826.8"/><polygon class="cls-4" points="190.45 705.29 180.36 834.17 82.51 826.79 134.5 702.47 166.15 689.47 190.45 705.29"/><polygon class="cls-4" points="238.48 199.51 283.97 149.76 306.32 210.82 238.48 199.51"/><polygon class="cls-4" points="306.3 210.8 238.48 199.5 283.98 149.77 306.3 210.8"/><polygon class="cls-4" points="351.51 85.35 385.59 76.01 376.86 122.48 351.51 85.35"/><polygon class="cls-4" points="385.59 76.02 376.85 122.46 351.52 85.35 385.59 76.02"/><polygon class="cls-7" points="376.85 122.47 377.29 120.06 587.93 191.68 587.92 191.69 376.85 122.47"/><polygon class="cls-7" points="377.3 120.06 587.92 191.68 376.85 122.46 377.3 120.06"/></svg>