<?xml version="1.0" encoding="UTF-8"?>
<svg id="Layer_1" data-name="Layer 1" xmlns="http://www.w3.org/2000/svg" viewBox="0 0 1000 1000">
  <defs>
    <style>
      .cls-1 {
        fill: #f2ae8f;
      }

      .cls-1, .cls-2, .cls-3, .cls-4, .cls-5, .cls-6, .cls-7, .cls-8, .cls-9, .cls-10, .cls-11, .cls-12, .cls-13, .cls-14, .cls-15 {
        fill-rule: evenodd;
        stroke-width: 0px;
      }

      .cls-2 {
        fill: #b24210;
      }

      .cls-3 {
        fill: #020202;
      }

      .cls-5 {
        fill: #ec6a30;
      }

      .cls-6 {
        fill: #f7e008;
      }

      .cls-7 {
        fill: #1d1f49;
      }

      .cls-8 {
        fill: #40b0ff;
      }

      .cls-9 {
        fill: #005490;
      }

      .cls-10 {
        fill: #fff;
      }

      .cls-11 {
        fill: #012548;
      }

      .cls-12 {
        fill: #02376c;
      }

      .cls-13 {
        fill: #80caff;
      }

      .cls-14 {
        fill: #e29e83;
      }

      .cls-15 {
        fill: #003860;
      }
    </style>
  </defs>
  <polygon class="cls-5" points="148.15 660.29 240.31 642.84 194.23 426.21 166.22 426.21 148.15 660.29 148.15 660.29"/>
  <path class="cls-15" d="M179.43,439.22h0c-1.42,0-2.52,1.79-2.52,3.91v52.64c0,2.12,1.1,3.91,2.52,3.91h0c1.42,0,2.52-1.79,2.52-3.91v-52.64c0-2.12-1.1-3.91-2.52-3.91h0Z"/>
  <polygon class="cls-15" points="179.22 497.93 217.64 535.58 200.8 450.5 179.22 441.53 179.22 497.93 179.22 497.93"/>
  <polygon class="cls-8" points="372.15 522.02 372.15 583.45 339.53 568.95 305.28 553.63 268.75 537.5 233.69 522.02 195.04 504.91 179.22 497.91 179.22 441.53 200.74 450.49 236.79 465.48 271.2 479.82 306.59 494.65 346.38 511.27 372.15 522.02 372.15 522.02"/>
  <polygon class="cls-13" points="268.86 537.47 233.79 522.01 200.84 450.56 236.89 465.53 268.86 537.47 268.86 537.47"/>
  <polygon class="cls-13" points="339.61 568.96 305.31 553.67 271.17 479.95 306.61 494.76 339.61 568.96 339.61 568.96"/>
  <polygon class="cls-13" points="372.15 522.03 372.15 567.49 346.33 511.23 372.15 522.03 372.15 522.03"/>
  <polygon class="cls-13" points="195.17 504.93 179.22 497.94 179.22 469.45 195.17 504.93 195.17 504.93"/>
  <polygon class="cls-5" points="328.48 746.36 420.64 728.9 374.64 512.07 346.59 512.07 328.48 746.36 328.48 746.36"/>
  <polygon class="cls-5" points="513.44 660.29 605.6 642.84 559.52 426.21 531.51 426.21 513.44 660.29 513.44 660.29"/>
  <path class="cls-15" d="M544.61,439.22h0c-1.48,0-2.62,1.79-2.62,3.91v52.64c0,2.12,1.15,3.91,2.62,3.91h0c1.48,0,2.62-1.79,2.62-3.91v-52.64c0-2.12-1.15-3.91-2.62-3.91h0Z"/>
  <polygon class="cls-15" points="544.51 497.93 582.71 535.58 565.97 450.5 544.51 441.53 544.51 497.93 544.51 497.93"/>
  <polygon class="cls-8" points="737.44 522.02 737.44 583.45 704.82 568.95 670.57 553.63 634.04 537.5 598.98 522.02 560.33 504.91 544.51 497.91 544.51 441.53 566.03 450.49 602.08 465.48 636.49 479.82 671.88 494.65 711.67 511.27 737.44 522.02 737.44 522.02"/>
  <polygon class="cls-13" points="633.94 537.47 598.87 522.01 565.92 450.56 601.97 465.53 633.94 537.47 633.94 537.47"/>
  <polygon class="cls-13" points="704.69 568.96 670.49 553.67 636.46 479.95 671.79 494.76 704.69 568.96 704.69 568.96"/>
  <polygon class="cls-13" points="737.44 522.03 737.44 567.49 711.62 511.23 737.44 522.03 737.44 522.03"/>
  <polygon class="cls-13" points="560.25 504.93 544.51 497.94 544.51 469.45 560.25 504.93 560.25 504.93"/>
  <polygon class="cls-5" points="693.56 746.36 785.72 728.9 739.72 512.07 711.67 512.07 693.56 746.36 693.56 746.36"/>
  <path class="cls-1" d="M557.1,367.5l-3.77-.81s-.16-3.25-1.31-5.36c-.98-2.11-1.8-3.57-1.8-3.57,0,0-.33-.81-1.64-.97l-7.21-1.46s-.66-.32-1.31.32l-.98,4.54-2.95-.65c-.82-.16-1.8.32-1.97,1.3l-.16.97c-.16.81.33,1.79,1.31,1.95l3.77.81v.16l-3.93-.81c-.98-.16-1.97.33-2.13,1.3l-.16.97c-.16.81.49,1.79,1.48,1.95l3.93.81v.16l-3.61-.65c-.98-.16-1.97.32-2.13,1.14l-.16.97c-.16.81.49,1.79,1.47,2.11l3.61.65v.16l-2.79-.49c-.82-.16-1.64.32-1.8,1.14l-.16.81c-.16.81.33,1.62,1.31,1.95l6.88,1.3c.33,0,.66,0,.98-.16l12.95,2.6,2.29-11.69h0v-1.46h0Z"/>
  <path class="cls-13" d="M560.5,364.26l-3.56-.49c-1.13-.16-2.43-.33-2.43.65l-1.13,8.84h0l-1.3,9.33c-.16.98.97,1.31,2.1,1.47l3.56.49c1.13.16,1.78.16,1.94-.82l1.3-9.33h0l1.13-8.84c.16-1.15-.49-1.15-1.62-1.31h0Z"/>
  <path class="cls-7" d="M555.81,382.54c-.65-.16-1.15-.64-.98-1.27.16-.48.82-.95,1.47-.8.65.16,1.15.64.98,1.27-.16.48-.82.8-1.47.8h0Z"/>
  <path class="cls-3" d="M777.8,436.8l-9.9,4.57c-4.71,3.1-3.08,3.43-1.95,8.16l1.79,6.04c1.14,4.73,4.06,11.1,4.06,11.1l.97,1.47,9.57,6.69c1.46,8.16,6.98,18.77,11.85,17.63h3.08l-.97-23.83-7.63-20.73c-1.3-4.9-3.25-15.18-10.87-11.1h0Z"/>
  <path class="cls-5" d="M832.96,382.86l18.61-67.27c1.14-4.4-1.31-8.96-5.71-10.1l-48.33-13.36c-4.41-1.14-8.98,1.3-10.12,5.7l-18.61,67.28c-1.14,4.4,1.31,8.96,5.71,10.1l48.33,13.36c4.41,1.14,8.98-1.3,10.12-5.7h0Z"/>
  <path class="cls-2" d="M768.41,366.9c-.98,3.43,1.14,7.02,4.57,8l13.54,3.75c4.57,1.31,13.7-9.47,15.33-14.85l13.37-48.31c1.79-6.53-1.14-18.77-5.54-20.07l-13.54-3.75c-3.42-.98-7.01,1.14-7.99,4.57l-6.03,22.03-6.2-1.8c-.49-.16-1.79-.49-3.1.16-1.3.65-2.28,1.96-2.94,3.75l-1.63,6.04-.98,3.75-1.63,6.04c-.49,1.96-.33,3.59.49,4.73.82,1.31,2.12,1.63,2.61,1.8l6.2,1.8-6.52,22.36h0ZM777.38,334.43c-.98,3.43-4.57,5.39-7.99,4.57h-.16c-.16-.16-.16-.65.16-1.63l1.63-6.04.98-3.75,1.63-6.04c.33-.98.65-1.31.82-1.47h.16c3.42.98,5.38,4.57,4.57,8l-1.79,6.36h0Z"/>
  <polygon class="cls-10" points="798.16 357.87 796.85 362.29 806.32 364.91 807.46 360.49 808.61 356.4 799.3 353.78 798.16 357.87 798.16 357.87"/>
  <polygon class="cls-10" points="810.43 314.1 809.12 318.12 807.98 322.45 817.28 325.02 818.59 320.68 819.73 316.67 810.43 314.1 810.43 314.1"/>
  <path class="cls-1" d="M776.17,321.34c.82.16,1.8,1.47,1.64,2.62h0c-.33,1.15-1.15,1.64-1.8,1.47l-.98-.33v.16l1.8.49c.98.33,1.8,1.47,1.47,2.62h0c-.33,1.14-1.64,1.47-2.62,1.31l-1.8-.49v.16l2.13.65c.98.33,2.13,1.47,1.8,2.62h0c-.33,1.14-1.97,1.47-2.95,1.31l-2.13-.65v.16l1.64.49c1.15.33,1.47,1.64,1.15,2.94h0c-.33,1.31-2.29,1.47-3.44,1.15l-3.11-.65c-.16,0-2.13-.65-3.44-1.14l-.16.98v2.45c-1.15.33-4.59-.82-5.9-2.29l-4.92-4.91c-.49-.98-1.15-1.64-1.15-2.62l3.11-10.79c.49-1.47,2.79-1.47,4.59-1.31l8.36,1.8c.16,0,3.77.98,3.77.98l2.95.82h0Z"/>
  <path class="cls-9" d="M652.16,319.18h0c-5.39-3.59-18.95-5.38-22.54,0l-25.64,49.89-37.73-4.73c-6.04-.65-5.06-1.47-6.04,4.73l-1.8,12.55c-.49,4.08-.98,3.42,5.55,4.89l44.1,6.19c1.96.33,3.43,0,4.41-.65,3.27-.49,6.21-2.12,8.17-5.05l34.63-51.68c3.59-5.38,2.12-12.55-3.1-16.14h0Z"/>
  <path class="cls-3" d="M525.16,509.28h0c.49-.49.81-1.14,1.14-1.63.33-.16.65-.49.98-.98l3.58-6.18-5.86-5.05-6.02-4.88c-4.23-3.26-8.3-8.46-9.93-6.35v.16l-14.32-2.6c-8.46-6.02-16.6-7.81-19.37-2.28l-.98,1.95,14.48,11.56,22.3,17.74c8.14,6.19,10.58,2.93,14-1.47h0Z"/>
  <polygon class="cls-14" points="610.64 303.55 612.27 316.41 641.92 312.83 624.56 284.5 610.64 303.55 610.64 303.55"/>
  <path class="cls-1" d="M619.46,257.1c11.43,3.09,18.94,11.89,15.19,26.06-3.92,14.17-26.94,22.96-36.09,22.96-3.92,0-4.25-2.28-4.41-6.19l-1.8-1.95.65-.98h0c-.33-.65-.33-1.14-.49-1.63-.65-.33-1.63-.33-1.63-.33l.98-3.09v-.16l-4.74-3.09,4.25-6.35c0-.16.16-.16.16-.16,0-.65.16-1.14.16-1.79-.33-1.14-1.63-1.47-1.63-1.47.82-5.21,2.94-8.96,4.9-11.56,4.74-10.26,14.37-12.87,24.49-10.26h0Z"/>
  <path class="cls-11" d="M775.36,461.42l-4.57-15.33c-3.26-9.3-4.57-4.73-11.1-.82l-46.17,23.32-35.73-61.65c-4.24-5.71-26.27-14.84-31.98-10.44l-9.3,16.8c-2.61,8.15,6.2,18.75,10.44,24.63l49.76,59.69c.98,1.3,2.61,2.28,4.41,3.1,4.24,4.24,11.1,5.38,16.48,2.12l2.61-1.47c1.31-.33,2.28-.98,3.26-1.47v-.16l46.66-24.79c3.92-1.63,8-2.28,5.22-13.54h0Z"/>
  <path class="cls-13" d="M670.9,375.47c3.43,15.64,13.54,55.06-14.52,58.48l-6.69.81c-15.66,3.42-28.23-27.37-29.69-43.66l-14.36-40.07c-3.43-15.64,6.69-42.19,22.35-45.45l5.22-.81c15.66-3.42,30.67,10.1,33.94,25.74l3.75,44.96h0Z"/>
  <path class="cls-8" d="M611,311.79s-6,9.85-2.76,14.7h.81l3.89-4.2-1.95-10.5h0Z"/>
  <path class="cls-11" d="M679.78,403.95l-55.26,1.3s-.49.98.33,7.17l-60.8,10.75s-.16,0-.16.16c-3.26.65-6.36,2.61-8.64,5.37l-41.24,50.17c-4.73,5.86-7.66,1.95-.33,7.17l12.88,12.87c5.05,7.49,9.13-2.61,13.69-8.47l31.95-32.74c1.3-1.63,2.45-4.4,3.26-7.82h0l87.54-6.84c25.27-6.19,20.7-32.74,16.79-39.09h0Z"/>
  <path class="cls-4" d="M590.95,261.94s38.29-24.91,44.81,11.56c0,0,2.61,11.72-.98,20.19l-2.93,7.81-6.84-1.63-2.93-15.79s1.14-11.07-6.84-4.88l-1.3,2.77-2.93,3.09-3.1-4.56,1.3-5.21s-8.64,4.56-19.55-8.63l1.3-4.72h0Z"/>
  <path class="cls-13" d="M635.7,300.25l2.44,3.91s-19.82,5.22-25.02,18.76l-2.27-11.74s17.87-5.87,24.86-10.93h0Z"/>
  <path class="cls-15" d="M679.21,404.9c.49,1.45.65,2.25.33,2.25l-53.28,2.89c-1.3,0-2.61-.96-2.61-2.25h0c0-1.29.98-2.57,2.28-2.57l51-2.73c1.3,0,1.63.64,2.12,2.41h.16Z"/>
  <path class="cls-6" d="M626.34,410.85c.16.65-.16,1.3-.65,1.46h0c-.65.16-1.3-.16-1.46-.65l-1.79-5.36c-.16-.65.16-1.3.65-1.46h0c.65-.16,1.3.16,1.46.65l1.79,5.36h0Z"/>
  <path class="cls-9" d="M638.22,301.93s-18.08,7.18-25.25,26.76c0,0-1.95,9.14,0,21.21,0,0,1.95,16.64,18.9,31.82,18.57,16.64,25.74,24.64,45.45,32.31,0,0,20.36-25.29,24.43-39.16,0,0-30.95-22.52-33.88-35.08,0,0,2.28-27.41-23.94-35.08l-5.7-2.77h0Z"/>
  <path class="cls-13" d="M755.54,313.94l-4.89-1.3s-.49.65-.65,1.63l-2.61,8.48h0l-2.44,8.15c-.33.98-.65,1.47,0,1.79l4.72,1.47c.98.33,2.12-.16,2.44-1.14l2.44-8.15h0l2.61-8.48c0-1.14-.65-2.12-1.63-2.45h0Z"/>
  <path class="cls-9" d="M749.68,311.75l-48.23-15.29c-2.12-.65-3.75-.49-4.89.16-1.14,0-2.28,0-3.26.33l-60.12,15.61c-6.19,1.63-9.94,7.97-8.31,14.15h0c1.63,6.18,10.59,16.43,16.78,14.96l57.52-22.12c.49.16.98.49,1.47.65l43.01,12.36c1.63.65,1.14,1.14,3.1-4.88l2.61-8.94c1.79-6.34,2.12-6.51.33-6.99h0Z"/>
  <path class="cls-7" d="M754.16,315.19c.69.17,1.04.84.87,1.34-.17.5-.87.84-1.56.67-.69-.17-1.04-.84-.87-1.34.17-.5.87-.84,1.56-.67h0Z"/>
  <path class="cls-12" d="M641.71,304.02c-.65.16-1.31.49-2.12.81-.65.33-1.31.65-1.96.81-.33.16-.65.33-.98.49l-.49.33-.49.33-.49.33-.49.33c-.33.16-.65.33-.98.65-.33.16-.65.33-.82.65-.16.16-.33.16-.49.33l-.49.33-.49.33-.49.33c-.33.16-.49.49-.82.65-.49.49-.98.98-1.47,1.47l-.65.82c-.16.33-.49.49-.65.81-.16.33-.49.49-.65.81l-.33.49-.33.49-.33.49c-.16.16-.16.33-.33.49l-.49.98c-.16.33-.33.65-.49.98,0,.16-.16.33-.16.49l-.16.49-.16.49-.16.16-.16.33-.33.98c-.16.33-.16.65-.33.98l-.16.49c0,.16,0,.33-.16.49l-.16.98c0,.33-.16.65-.16.98-.16.65-.16,1.47-.16,2.12v2.28l-.16.33-2.61,3.26-2.78,3.26-.49-1.63,4.41,1.47,4.41,1.47.82.33-.16.81c0,.49-.16.98-.16,1.47v7.33c0,.98.16,1.96.16,2.93s.16,1.96.33,2.93v.81l.16.81c0,.49.16.98.16,1.47.16.98.33,1.96.49,2.93.16.98.33,1.96.65,2.93l.16.65.16.65c.16.49.33.98.33,1.47l.49,1.47c.16.49.33.98.49,1.47l.16.65.33.65c.16.49.33.98.49,1.47.33.98.82,1.79,1.14,2.77.33.98.82,1.79,1.31,2.61.16.49.49.81.65,1.3l.33.65c.16.16.33.49.33.65l.82,1.3.82,1.3.49.65.49.65.82,1.14-.98-1.14-.49-.49-.49-.65-.98-1.14-.82-1.3c-.16-.16-.33-.33-.49-.65l-.49-.65c-.33-.49-.49-.81-.82-1.3-.49-.81-.98-1.79-1.47-2.61-.49-.81-.98-1.79-1.31-2.77-.16-.49-.33-.98-.65-1.47l-.33-.65-.33-.65c-.16-.49-.33-.98-.49-1.47l-.49-1.47c-.16-.49-.33-.98-.49-1.47l-.16-.65-.16-.65c-.33-.98-.49-1.96-.82-2.93l-.33-1.47c-.16-.49-.16-.98-.33-1.47s-.16-.98-.33-1.47l-.16-.81-.16-.81c-.16-.98-.33-1.96-.33-3.1-.16-.98-.16-1.96-.16-3.1v-7.5c0-.49,0-.98.16-1.47l.65,1.14-4.41-1.47-4.41-1.47-1.31-.49.98-1.14,2.78-3.26,2.78-3.26-.16.65v-2.28c0-.81.16-1.47.16-2.28,0-.33.16-.81.16-1.14l.16-1.14c0-.16,0-.33.16-.49l.16-.49c.16-.33.16-.65.33-1.14l.33-.98.16-.33.82-.65.16-.49.16-.49c0-.16.16-.33.33-.49.16-.33.33-.65.49-.98l.65-.98c.16-.33.49-.65.65-.98l.33-.49.33-.49c.16-.33.49-.65.65-.81.33-.33.49-.49.82-.81l.82-.82c.49-.49,1.14-.98,1.63-1.47.33-.16.65-.49.82-.65l.49-.33.49-.33.49-.33c.16-.16.33-.16.49-.33.33-.16.65-.33.98-.49.33-.16.65-.33.98-.49.33-.16.65-.33.98-.49l.49-.16.49-.16c.33-.16.65-.33.98-.49.65-.33,1.31-.49,2.12-.65.82-.16,1.63-.33,2.29-.49h0Z"/>
  <path class="cls-8" d="M607.21,326.13s-19.6,32.87,33.98,52.89l12.91.16-8.98-7.65s-50.81-13.51-35.12-45.73c0-.16-1.47-4.72-2.78.33h0Z"/>
</svg>