<svg width="358" height="251" viewBox="0 0 358 251" fill="none" xmlns="http://www.w3.org/2000/svg">
<path fill-rule="evenodd" clip-rule="evenodd" d="M0 206.703L46.7602 197.849L23.3801 87.9355H9.16837L0 206.703Z" fill="#EC6A30"/>
<path fill-rule="evenodd" clip-rule="evenodd" d="M15.8684 94.5352C15.148 94.5352 14.5898 95.4434 14.5898 96.519V123.228C14.5898 124.303 15.148 125.211 15.8684 125.211C16.5889 125.211 17.147 124.303 17.147 123.228V96.519C17.147 95.4434 16.5889 94.5352 15.8684 94.5352Z" fill="#003860"/>
<path fill-rule="evenodd" clip-rule="evenodd" d="M15.7656 124.327L35.2592 143.43L26.7149 100.262L15.7656 95.7109V124.327Z" fill="#003860"/>
<path fill-rule="evenodd" clip-rule="evenodd" d="M113.655 136.55V167.718L97.1038 160.361L79.726 152.588L61.1914 144.404L43.4027 136.55L23.7924 127.869L15.7656 124.317V95.7109L26.6845 100.257L44.9755 107.863L62.4345 115.139L80.3907 122.663L100.579 131.096L113.655 136.55Z" fill="#40B0FF"/>
<path fill-rule="evenodd" clip-rule="evenodd" d="M61.2464 144.384L43.4526 136.539L26.7344 100.287L45.0255 107.883L61.2464 144.384Z" fill="#80CAFF"/>
<path fill-rule="evenodd" clip-rule="evenodd" d="M97.147 160.365L79.7438 152.607L62.4219 115.203L80.4034 122.717L97.147 160.365Z" fill="#80CAFF"/>
<path fill-rule="evenodd" clip-rule="evenodd" d="M113.655 136.552V159.617L100.555 131.072L113.655 136.552Z" fill="#80CAFF"/>
<path fill-rule="evenodd" clip-rule="evenodd" d="M23.8583 127.877L15.7656 124.33V109.875L23.8583 127.877Z" fill="#80CAFF"/>
<path fill-rule="evenodd" clip-rule="evenodd" d="M91.4961 250.372L138.256 241.513L114.917 131.498H100.685L91.4961 250.372Z" fill="#EC6A30"/>
<path fill-rule="evenodd" clip-rule="evenodd" d="M185.344 206.703L232.104 197.849L208.724 87.9355H194.512L185.344 206.703Z" fill="#EC6A30"/>
<path fill-rule="evenodd" clip-rule="evenodd" d="M201.157 94.5352C200.407 94.5352 199.828 95.4434 199.828 96.519V123.228C199.828 124.303 200.412 125.211 201.157 125.211C201.908 125.211 202.487 124.303 202.487 123.228V96.519C202.487 95.4434 201.903 94.5352 201.157 94.5352Z" fill="#003860"/>
<path fill-rule="evenodd" clip-rule="evenodd" d="M201.109 124.327L220.491 143.43L211.998 100.262L201.109 95.7109V124.327Z" fill="#003860"/>
<path fill-rule="evenodd" clip-rule="evenodd" d="M298.998 136.55V167.718L282.448 160.361L265.07 152.588L246.535 144.404L228.746 136.55L209.136 127.869L201.109 124.317V95.7109L212.028 100.257L230.319 107.863L247.778 115.139L265.734 122.663L285.923 131.096L298.998 136.55Z" fill="#40B0FF"/>
<path fill-rule="evenodd" clip-rule="evenodd" d="M246.485 144.384L228.691 136.539L211.973 100.287L230.264 107.883L246.485 144.384Z" fill="#80CAFF"/>
<path fill-rule="evenodd" clip-rule="evenodd" d="M282.38 160.365L265.028 152.607L247.762 115.203L265.687 122.717L282.38 160.365Z" fill="#80CAFF"/>
<path fill-rule="evenodd" clip-rule="evenodd" d="M298.995 136.552V159.617L285.895 131.072L298.995 136.552Z" fill="#80CAFF"/>
<path fill-rule="evenodd" clip-rule="evenodd" d="M209.096 127.877L201.109 124.33V109.875L209.096 127.877Z" fill="#80CAFF"/>
<path fill-rule="evenodd" clip-rule="evenodd" d="M276.727 250.372L323.487 241.513L300.147 131.498H285.915L276.727 250.372Z" fill="#EC6A30"/>
<path fill-rule="evenodd" clip-rule="evenodd" d="M207.497 58.1451L205.584 57.7341C205.584 57.7341 205.503 56.0851 204.92 55.0146C204.423 53.944 204.007 53.2032 204.007 53.2032C204.007 53.2032 203.839 52.7922 203.174 52.7111L199.516 51.9703C199.516 51.9703 199.181 51.8079 198.852 52.1326L198.354 54.4362L196.858 54.1064C196.441 54.0252 195.944 54.2687 195.858 54.7659L195.777 55.2581C195.696 55.6691 195.944 56.1663 196.441 56.2475L198.354 56.6585V56.7397L196.36 56.3287C195.863 56.2475 195.361 56.4961 195.28 56.9883L195.198 57.4804C195.117 57.8914 195.447 58.3887 195.949 58.4698L197.943 58.8808V58.962L196.112 58.6322C195.614 58.551 195.112 58.7946 195.031 59.2106L194.95 59.7028C194.869 60.1137 195.198 60.611 195.696 60.7733L197.527 61.1031V61.1843L196.112 60.9357C195.696 60.8545 195.28 61.0981 195.198 61.5141L195.117 61.9251C195.036 62.3361 195.285 62.747 195.782 62.9145L199.273 63.5741C199.44 63.5741 199.608 63.5741 199.77 63.4929L206.34 64.8121L207.502 58.8808V58.14L207.497 58.1451Z" fill="#F2AE8F"/>
<path fill-rule="evenodd" clip-rule="evenodd" d="M209.225 56.5025L207.419 56.2539C206.846 56.1727 206.186 56.0864 206.186 56.5837L205.613 61.0689L204.953 65.8028C204.872 66.3 205.445 66.4674 206.019 66.5486L207.825 66.7972C208.398 66.8784 208.728 66.8784 208.809 66.3812L209.469 61.6473L210.042 57.1621C210.123 56.5786 209.793 56.5786 209.22 56.4974L209.225 56.5025Z" fill="#80CAFF"/>
<path fill-rule="evenodd" clip-rule="evenodd" d="M206.846 65.7795C206.516 65.6984 206.263 65.4548 206.349 65.1352C206.43 64.8916 206.765 64.6532 207.095 64.7293C207.425 64.8104 207.678 65.054 207.592 65.3736C207.511 65.6172 207.176 65.7795 206.846 65.7795Z" fill="#1D1F49"/>
<path fill-rule="evenodd" clip-rule="evenodd" d="M319.47 93.3091L314.447 95.6278C312.057 97.2007 312.884 97.3682 313.457 99.7681L314.365 102.833C314.944 105.233 316.425 108.465 316.425 108.465L316.917 109.21L321.773 112.605C322.514 116.745 325.315 122.128 327.786 121.55H329.348L328.856 109.459L324.985 98.941C324.325 96.4549 323.336 91.239 319.47 93.3091Z" fill="#020202"/>
<path fill-rule="evenodd" clip-rule="evenodd" d="M347.457 65.938L356.899 31.8065C357.477 29.574 356.234 27.2604 354.002 26.682L329.48 19.9034C327.243 19.325 324.924 20.563 324.345 22.7954L314.903 56.932C314.325 59.1645 315.568 61.4781 317.8 62.0566L342.322 68.8352C344.559 69.4136 346.878 68.1756 347.457 65.9431V65.938Z" fill="#EC6A30"/>
<path fill-rule="evenodd" clip-rule="evenodd" d="M314.706 57.8428C314.209 59.5831 315.284 61.4046 317.025 61.9018L323.895 63.8045C326.213 64.4692 330.846 58.9996 331.673 56.2699L338.456 31.7583C339.365 28.4451 337.878 22.2348 335.645 21.5752L328.776 19.6725C327.04 19.1753 325.219 20.2509 324.722 21.9913L321.662 33.1689L318.516 32.2556C318.268 32.1744 317.608 32.007 316.943 32.3368C316.284 32.6666 315.787 33.3312 315.452 34.2394L314.625 37.304L314.127 39.2067L313.3 42.2713C313.052 43.2657 313.133 44.0928 313.549 44.6712C313.965 45.3358 314.625 45.4982 314.873 45.5845L318.019 46.4978L314.711 57.8428H314.706ZM319.257 41.3681C318.76 43.1084 316.938 44.1029 315.203 43.6869H315.122C315.041 43.6057 315.041 43.3571 315.203 42.8598L316.03 39.7952L316.527 37.8926L317.354 34.828C317.522 34.3308 317.684 34.1633 317.77 34.0821H317.852C319.587 34.5794 320.581 36.4009 320.17 38.1412L319.262 41.3681H319.257Z" fill="#B24210"/>
<path fill-rule="evenodd" clip-rule="evenodd" d="M329.805 53.2607L329.141 55.5034L333.946 56.8327L334.524 54.5901L335.107 52.5149L330.384 51.1855L329.805 53.2607Z" fill="white"/>
<path fill-rule="evenodd" clip-rule="evenodd" d="M336.024 31.0527L335.36 33.0924L334.781 35.2894L339.5 36.5933L340.165 34.3913L340.743 32.3567L336.024 31.0527Z" fill="white"/>
<path fill-rule="evenodd" clip-rule="evenodd" d="M318.647 34.7271C319.063 34.8083 319.56 35.4729 319.479 36.0564C319.311 36.6399 318.895 36.8885 318.566 36.8023L318.068 36.6348V36.716L318.982 36.9646C319.479 37.1321 319.895 37.7105 319.728 38.294C319.56 38.8724 318.895 39.0398 318.398 38.9586L317.485 38.71V38.7912L318.566 39.121C319.063 39.2884 319.646 39.8669 319.479 40.4503C319.311 41.0288 318.479 41.1962 317.982 41.115L316.901 40.7852V40.8664L317.734 41.115C318.317 41.2824 318.479 41.9471 318.317 42.6067C318.15 43.2714 317.155 43.3526 316.572 43.1902L314.994 42.8604C314.912 42.8604 313.913 42.5306 313.248 42.282L313.167 42.7792V44.0223C312.584 44.1897 310.838 43.6063 310.174 42.8604L307.677 40.3692C307.429 39.8719 307.094 39.5371 307.094 39.0398L308.672 33.5652C308.92 32.8193 310.087 32.8193 311.001 32.9005L315.242 33.8138C315.323 33.8138 317.155 34.311 317.155 34.311L318.652 34.7271H318.647Z" fill="#F2AE8F"/>
<path fill-rule="evenodd" clip-rule="evenodd" d="M255.73 33.6277C252.995 31.8062 246.115 30.898 244.293 33.6277L231.284 58.9409L212.14 56.541C209.076 56.2112 209.573 55.7951 209.076 58.9409L208.163 65.3085C207.914 67.3786 207.665 67.0438 210.979 67.7896L233.354 70.9303C234.349 71.0978 235.094 70.9303 235.592 70.6005C237.251 70.3519 238.742 69.5249 239.737 68.0382L257.308 41.8168C259.129 39.0871 258.383 35.4492 255.735 33.6277H255.73Z" fill="#005490"/>
<path fill-rule="evenodd" clip-rule="evenodd" d="M191.288 130.081C191.537 129.832 191.699 129.502 191.867 129.254C192.034 129.172 192.196 129.005 192.364 128.756L194.18 125.621L191.207 123.058L188.153 120.582C186.006 118.928 183.941 116.29 183.114 117.36V117.442L175.849 116.122C171.556 113.068 167.426 112.16 166.021 114.966L165.523 115.955L172.87 121.82L184.185 130.821C188.315 133.962 189.553 132.308 191.288 130.075V130.081Z" fill="#020202"/>
<path fill-rule="evenodd" clip-rule="evenodd" d="M234.66 25.6988L235.487 32.2237L250.531 30.4073L241.723 16.0332L234.66 25.6988Z" fill="#E29E83"/>
<path fill-rule="evenodd" clip-rule="evenodd" d="M239.139 2.13394C244.939 3.70174 248.749 8.16669 246.846 15.3563C244.857 22.5459 233.177 27.0057 228.535 27.0057C226.546 27.0057 226.379 25.8489 226.297 23.865L225.384 22.8757L225.714 22.3784C225.546 22.0486 225.546 21.8 225.465 21.5514C225.135 21.384 224.638 21.384 224.638 21.384L225.135 19.8162V19.735L222.73 18.1672L224.887 14.9453C224.887 14.8641 224.968 14.8641 224.968 14.8641C224.968 14.5343 225.049 14.2857 225.049 13.9559C224.882 13.3775 224.222 13.2101 224.222 13.2101C224.638 10.5666 225.714 8.66392 226.708 7.34473C229.113 2.139 233.999 0.814735 239.134 2.139L239.139 2.13394Z" fill="#F2AE8F"/>
<path fill-rule="evenodd" clip-rule="evenodd" d="M318.234 105.801L315.915 98.0231C314.261 93.3045 313.596 95.6232 310.283 97.607L286.857 109.439L268.728 78.1591C266.577 75.262 255.4 70.6296 252.502 72.8621L247.784 81.3861C246.46 85.5212 250.93 90.8995 253.081 93.8829L278.328 124.168C278.825 124.828 279.652 125.325 280.566 125.741C282.717 127.893 286.198 128.471 288.927 126.817L290.252 126.071C290.916 125.904 291.408 125.574 291.906 125.325V125.244L315.58 112.666C317.569 111.839 319.639 111.509 318.229 105.796L318.234 105.801Z" fill="#012548"/>
<path fill-rule="evenodd" clip-rule="evenodd" d="M265.24 62.1917C266.98 70.1271 272.11 90.1281 257.873 91.8633L254.478 92.2743C246.533 94.0095 240.155 78.3873 239.414 70.1221L232.128 49.7913C230.388 41.8559 235.523 28.3849 243.468 26.7308L246.117 26.3199C254.062 24.5846 261.678 31.4444 263.337 39.3799L265.24 62.1917Z" fill="#80CAFF"/>
<path fill-rule="evenodd" clip-rule="evenodd" d="M234.841 29.8828C234.841 29.8828 231.796 34.8805 233.44 37.3413H233.851L235.825 35.2103L234.836 29.8828H234.841Z" fill="#40B0FF"/>
<path fill-rule="evenodd" clip-rule="evenodd" d="M269.735 76.6406L241.697 77.3002C241.697 77.3002 241.448 77.7975 241.864 80.9381L211.015 86.3925C211.015 86.3925 210.934 86.3925 210.934 86.4737C209.28 86.8034 207.707 87.7979 206.55 89.1983L185.626 114.654C183.226 117.627 181.74 115.643 185.459 118.292L191.994 124.821C194.556 128.622 196.626 123.497 198.94 120.524L215.151 103.912C215.81 103.085 216.394 101.68 216.805 99.9446L261.221 96.4741C274.042 93.3335 271.723 79.8625 269.74 76.6406H269.735Z" fill="#012548"/>
<path fill-rule="evenodd" clip-rule="evenodd" d="M224.67 4.58608C224.67 4.58608 244.098 -8.05278 247.406 10.4514C247.406 10.4514 248.73 16.3979 246.909 20.6954L245.422 24.6581L241.952 23.831L240.465 15.8195C240.465 15.8195 241.043 10.2028 236.994 13.3435L236.335 14.7489L234.848 16.3167L233.275 14.0031L233.935 11.3596C233.935 11.3596 229.551 13.6733 224.016 6.98091L224.675 4.58608H224.67Z" fill="black"/>
<path fill-rule="evenodd" clip-rule="evenodd" d="M247.378 24.0254L248.616 26.0093C248.616 26.0093 238.56 28.6578 235.921 35.5277L234.77 29.5711C234.77 29.5711 243.836 26.5927 247.383 24.0254H247.378Z" fill="#80CAFF"/>
<path fill-rule="evenodd" clip-rule="evenodd" d="M269.452 77.1212C269.7 77.8569 269.782 78.2628 269.619 78.2628L242.586 79.7292C241.926 79.7292 241.262 79.2421 241.262 78.5876C241.262 77.933 241.759 77.2836 242.419 77.2836L268.295 75.8984C268.955 75.8984 269.122 76.2232 269.371 77.1212H269.452Z" fill="#003860"/>
<path fill-rule="evenodd" clip-rule="evenodd" d="M242.625 80.1388C242.706 80.4686 242.544 80.7984 242.295 80.8796C241.965 80.9608 241.635 80.7984 241.554 80.5498L240.646 77.8302C240.565 77.5004 240.727 77.1706 240.976 77.0894C241.306 77.0083 241.635 77.1706 241.717 77.4192L242.625 80.1388Z" fill="#F7E008"/>
<path fill-rule="evenodd" clip-rule="evenodd" d="M248.653 24.8789C248.653 24.8789 239.48 28.5219 235.842 38.4564C235.842 38.4564 234.853 43.0939 235.842 49.218C235.842 49.218 236.831 57.6608 245.432 65.3628C254.854 73.8056 258.492 77.8647 268.492 81.7563C268.492 81.7563 278.822 68.9246 280.887 61.8873C280.887 61.8873 265.184 50.4611 263.697 44.0884C263.697 44.0884 264.854 30.181 251.551 26.2894L248.659 24.884L248.653 24.8789Z" fill="#005490"/>
<path fill-rule="evenodd" clip-rule="evenodd" d="M308.182 30.9682L305.7 30.3086C305.7 30.3086 305.452 30.6384 305.371 31.1356L304.046 35.4382L302.808 39.5734C302.641 40.0706 302.479 40.3192 302.808 40.4816L305.203 41.2274C305.7 41.3949 306.279 41.1462 306.441 40.649L307.679 36.5139L309.003 32.2113C309.003 31.6329 308.674 31.1356 308.176 30.9682H308.182Z" fill="#80CAFF"/>
<path fill-rule="evenodd" clip-rule="evenodd" d="M305.211 29.8589L280.74 22.1011C279.664 21.7713 278.837 21.8525 278.259 22.1823C277.681 22.1823 277.102 22.1823 276.605 22.3497L246.101 30.2699C242.961 31.097 241.058 34.3137 241.885 37.4494C242.712 40.585 247.258 45.7856 250.399 45.0398L279.583 33.8165C279.832 33.8977 280.081 34.0651 280.329 34.1463L302.152 40.4175C302.979 40.7473 302.73 40.996 303.724 37.9415L305.049 33.4055C305.957 30.1887 306.124 30.1025 305.216 29.8589H305.211Z" fill="#005490"/>
<path fill-rule="evenodd" clip-rule="evenodd" d="M307.477 31.6065C307.827 31.6927 308.005 32.0326 307.919 32.2863C307.832 32.54 307.477 32.7125 307.127 32.6263C306.777 32.54 306.599 32.2001 306.686 31.9464C306.772 31.6927 307.127 31.5202 307.477 31.6065Z" fill="#1D1F49"/>
<path fill-rule="evenodd" clip-rule="evenodd" d="M250.424 25.9359C250.094 26.0171 249.759 26.1845 249.348 26.3469C249.018 26.5143 248.684 26.6767 248.354 26.7579C248.186 26.8391 248.024 26.9253 247.857 27.0065L247.608 27.1739L247.359 27.3414L247.111 27.5088L246.862 27.6763C246.695 27.7574 246.532 27.8437 246.365 28.006C246.197 28.0872 246.035 28.1735 245.949 28.3358C245.868 28.417 245.781 28.417 245.7 28.5033L245.452 28.6707L245.203 28.8381L244.954 29.0056C244.787 29.0868 244.706 29.2542 244.538 29.3354C244.29 29.584 244.041 29.8326 243.792 30.0812L243.463 30.4973C243.381 30.6647 243.214 30.7459 243.133 30.9083C243.052 31.0757 242.884 31.1569 242.803 31.3192L242.636 31.5679L242.468 31.8165L242.301 32.0651C242.22 32.1463 242.22 32.2325 242.133 32.3137L241.885 32.8109C241.803 32.9784 241.717 33.1407 241.636 33.3082C241.636 33.3893 241.555 33.4756 241.555 33.5568L241.474 33.8054L241.393 34.054L241.311 34.1352L241.23 34.3026L241.063 34.7999C240.982 34.9673 240.982 35.1297 240.895 35.2971L240.814 35.5457C240.814 35.6269 240.814 35.7132 240.733 35.7943L240.652 36.2916C240.652 36.459 240.571 36.6214 240.571 36.7888C240.489 37.1186 240.489 37.5347 240.489 37.8644V39.0213L240.408 39.1887L239.084 40.8428L237.673 42.4968L237.425 41.6698L239.662 42.4157L241.9 43.1615L242.316 43.3289L242.235 43.7399C242.235 43.9885 242.154 44.2371 242.154 44.4858V48.2049C242.154 48.7021 242.235 49.1993 242.235 49.6915C242.235 50.1837 242.316 50.686 242.402 51.1781V51.5891L242.483 52.0001C242.483 52.2487 242.565 52.4973 242.565 52.7459C242.646 53.2432 242.732 53.7404 242.813 54.2326C242.894 54.7298 242.981 55.227 243.143 55.7192L243.224 56.049L243.305 56.3788C243.387 56.6274 243.473 56.876 243.473 57.1246L243.721 57.8705C243.803 58.1191 243.889 58.3677 243.97 58.6163L244.051 58.9461L244.219 59.2759C244.3 59.5245 244.386 59.7732 244.467 60.0218C244.635 60.519 244.883 60.93 245.046 61.4272C245.213 61.9244 245.462 62.3354 245.71 62.7515C245.792 63.0001 245.959 63.1625 246.04 63.4111L246.208 63.7409C246.289 63.822 246.375 63.9895 246.375 64.0707L246.791 64.7303L247.207 65.3899L247.456 65.7196L247.704 66.0494L248.12 66.6279L247.623 66.0494L247.375 65.8008L247.126 65.471L246.629 64.8926L246.213 64.233C246.131 64.1518 246.045 64.0656 245.964 63.9032L245.715 63.5734C245.548 63.3248 245.467 63.1624 245.299 62.9138C245.051 62.5029 244.802 62.0056 244.554 61.5896C244.305 61.1786 244.056 60.6814 243.889 60.1841C243.808 59.9355 243.721 59.6869 243.559 59.4383L243.392 59.1085L243.224 58.7787C243.143 58.5301 243.057 58.2814 242.976 58.0328L242.727 57.287C242.646 57.0384 242.559 56.7897 242.478 56.5411L242.397 56.2113L242.316 55.8815C242.149 55.3843 242.067 54.8871 241.9 54.3949L241.732 53.6491C241.651 53.4005 241.651 53.1518 241.565 52.9032C241.479 52.6546 241.484 52.406 241.398 52.1574L241.316 51.7464L241.235 51.3354C241.154 50.8382 241.068 50.3409 241.068 49.7625C240.987 49.2653 240.987 48.7681 240.987 48.1896V44.3843C240.987 44.1357 240.987 43.8871 241.068 43.6384L241.398 44.2169L239.16 43.471L236.922 42.7251L236.258 42.4765L236.755 41.8981L238.166 40.2441L239.576 38.59L239.495 38.9198V37.763C239.495 37.352 239.576 37.0171 239.576 36.6061C239.576 36.4387 239.657 36.1952 239.657 36.0277L239.738 35.4493C239.738 35.3681 239.738 35.2819 239.82 35.2007L239.901 34.9521C239.982 34.7847 239.982 34.6223 240.068 34.3737L240.236 33.8764L240.317 33.709L240.733 33.3792L240.814 33.1306L240.895 32.882C240.895 32.8008 240.976 32.7145 241.063 32.6334C241.144 32.4659 241.23 32.3036 241.311 32.1361L241.641 31.6389C241.722 31.4715 241.89 31.3091 241.971 31.1417L242.138 30.893L242.306 30.6444C242.387 30.477 242.554 30.3146 242.636 30.2334C242.803 30.066 242.884 29.9848 243.052 29.8225L243.468 29.4064C243.716 29.1578 244.046 28.9092 244.295 28.6606C244.462 28.5794 244.625 28.4119 244.711 28.3308L244.959 28.1633L245.208 27.9959L245.457 27.8285C245.538 27.7473 245.624 27.7473 245.705 27.661C245.873 27.5798 246.035 27.4936 246.202 27.4124C246.37 27.3312 246.532 27.245 246.7 27.1638C246.867 27.0826 247.03 26.9964 247.197 26.9152L247.446 26.834L247.694 26.7528C247.862 26.6716 248.024 26.5854 248.191 26.5042C248.521 26.3368 248.856 26.2556 249.267 26.1744C249.683 26.0932 250.094 26.007 250.429 25.9258L250.424 25.9359Z" fill="#02376C"/>
<path fill-rule="evenodd" clip-rule="evenodd" d="M232.92 37.1546C232.92 37.1546 222.975 53.8322 250.161 63.9899L256.711 64.0711L252.155 60.1896C252.155 60.1896 226.375 53.3349 234.335 36.9871C234.335 36.9059 233.589 34.5923 232.925 37.1546H232.92Z" fill="#40B0FF"/>
</svg>
