<?xml version="1.0" encoding="UTF-8"?>
<svg id="Layer_1" data-name="Layer 1" xmlns="http://www.w3.org/2000/svg" viewBox="0 0 3660 2282">
  <defs>
    <style>
      .cls-1, .cls-2, .cls-3, .cls-4, .cls-5, .cls-6, .cls-7, .cls-8, .cls-9, .cls-10, .cls-11, .cls-12, .cls-13, .cls-14, .cls-15, .cls-16, .cls-17, .cls-18 {
        stroke-width: 0px;
      }

      .cls-1, .cls-2, .cls-4, .cls-5, .cls-9, .cls-10, .cls-11, .cls-12, .cls-16, .cls-17 {
        fill-rule: evenodd;
      }

      .cls-1, .cls-18 {
        fill: #2a93fb;
      }

      .cls-2, .cls-15 {
        fill: #002d4d;
      }

      .cls-3, .cls-5 {
        fill: #ec6a30;
      }

      .cls-6 {
        fill: none;
      }

      .cls-7 {
        fill: #e95715;
      }

      .cls-8, .cls-10 {
        fill: #fff;
      }

      .cls-9 {
        fill: #ef9e89;
      }

      .cls-11 {
        fill: #fdae95;
      }

      .cls-12 {
        fill: #162836;
      }

      .cls-13 {
        fill: #0070c0;
      }

      .cls-14, .cls-17 {
        fill: #003860;
      }

      .cls-16 {
        fill: #f09b84;
      }
    </style>
  </defs>
  <g>
    <polygon class="cls-7" points="3199.18 71.77 3199.18 2210.23 1121.3 2210.23 1121.3 897.39 1663.81 897.39 1663.81 535.96 2324.66 535.96 2324.66 71.77 3199.18 71.77"/>
    <rect class="cls-14" x="1188.99" y="950.54" width="524.43" height="1194.13"/>
    <rect class="cls-13" x="1713.42" y="582.03" width="676.79" height="1562.65"/>
    <rect class="cls-18" x="2390.21" y="137.33" width="748.73" height="2007.35"/>
    <rect class="cls-3" x="460.82" y="1588.36" width="595.29" height="595.29"/>
    <rect class="cls-15" x="515.74" y="1643.28" width="485.45" height="485.45"/>
  </g>
  <g>
    <g>
      <path class="cls-11" d="M1137.61,916.88s49.61-72.64,83.27-33.66l17.72,14.17-46.06,40.75-24.8,33.66s-28.35,10.38-30.12-1.9,0-53.02,0-53.02Z"/>
      <path class="cls-11" d="M680.51,1055.07l-23.03-7.09s-54.92,77.45,19.49,82.13"/>
    </g>
    <g>
      <path class="cls-12" d="M722.66,1521.03l-8.49,59.04c0,8.61,5.83,15.37,13.26,15.37h136.83c6.36,0,11.14-6.15,11.14-12.91h0c0-4.31-1.59-7.99-4.24-10.45l-80.61-51.04h-67.88Z"/>
      <path class="cls-12" d="M665.71,1383.95l-58.58,12.97c-7.94,3.33-11.35,12.71-7.74,21.32l66.5,158.71c3.09,7.38,11.09,10.54,17.32,7.93h0c3.97-1.66,6.6-4.93,7.58-8.96l7.9-113.23-32.99-78.74h0Z"/>
      <path class="cls-17" d="M885.14,1187.06l-3.54,139.97-191.34,143.51s-63.78-49.61-47.84-83.27l47.61-34,101.22-72.3-7.09-88.59,100.99-5.32Z"/>
      <polygon class="cls-15" points="791.24 1280.97 690.02 1353.27 677.3 1183.66 690.25 1188.84 784.16 1192.38 791.24 1280.97"/>
      <line class="cls-6" x1="690.52" y1="1359.81" x2="690.02" y2="1353.27"/>
      <line class="cls-6" x1="677.3" y1="1183.66" x2="676.97" y2="1179.09"/>
      <polygon class="cls-2" points="792.41 1393.92 792.41 1520.15 722.4 1520.15 706.2 1500.66 706.2 1457.04 792.41 1393.92"/>
      <g>
        <polygon class="cls-5" points="789.86 937.59 776.18 975.35 762.13 935.13 769.98 843.35 780.61 843.35 789.86 937.59"/>
        <polygon class="cls-1" points="820.67 852.6 789.86 937.59 780.61 843.35 794.64 831.22 820.67 852.6"/>
        <path class="cls-1" d="M1094.84,984.63l-208.65-97.87-1.05,300.31-100.99,5.32-93.9-3.54-12.95-5.17-13.62-5.46v-127.56l-1.77-168.31s-76.18,17.72-81.84,65.93c-5.67,48.23,72.09,87.33,72.09,87.33l-30.86,57.51s-71.9-14.99-107.33-123.06c-33.43-101.98,135.59-160.78,154.74-167.07l43.69,46.6-7.09,31.89,70.87,93.9,76.18-113.39-15.95-12.4,52.27-57.95,237.41,126.16c17.72,30.12-31.25,66.86-31.25,66.86Z"/>
        <polygon class="cls-13" points="888.69 791.6 836.42 849.55 852.37 861.96 776.18 975.35 789.86 937.59 820.67 852.6 843.12 790.68 848.11 776.88 849.71 772.48 901.97 776.88 888.69 791.6"/>
        <polygon class="cls-13" points="705.31 881.44 712.4 849.55 668.71 802.96 659.25 792.86 706.84 776.88 710.1 786.21 712.38 792.74 732.81 851.2 762.13 935.13 776.18 975.35 705.31 881.44"/>
        <polygon class="cls-18" points="769.98 843.35 762.13 935.13 732.81 851.2 758.5 831.22 769.98 843.35"/>
        <polygon class="cls-3" points="794.64 831.22 780.61 843.35 769.98 843.35 758.5 831.22 777.07 816.78 794.64 831.22"/>
      </g>
      <path class="cls-16" d="M723.84,760.21s29.19,72.58,107.26,67.21v-57.12l-107.26-10.08h0Z"/>
      <path class="cls-4" d="M873.14,516.77s109.57,12.86,9.41,126.55l-28.91-77.82,19.49-48.72h0Z"/>
      <path class="cls-11" d="M760.85,802.39h0c68.73,0,125.34-56.75,125.34-125.65v-120.92c0-29.73-24.26-54.72-54.58-54.72h-141.51c-29.65,0-54.58,24.32-54.58,54.72v120.92c.67,68.91,56.61,125.65,125.34,125.65h0Z"/>
      <path class="cls-4" d="M788.72,421.59c-63.57-8.8-94.67-17.59-125.1,2.71-33.81,22.32-43.28,65.61-46.66,91.32-5.41-.68-20.29-.68-33.14,15.56-15.55,20.29,22.32,110.94,22.32,110.94h49.37s68.3-37.21,39.22-113.64h0c30.43,12.18,142.69,54.79,242.77,0,27.73-15.56,77.77-50.73,71.01-75.09-6.76-25.03-65.6-9.47-219.78-31.79h0Z"/>
      <path class="cls-11" d="M580.07,658.38c0,24.96,20.24,45.19,45.19,45.19s45.19-20.24,45.19-45.19-20.24-45.19-45.19-45.19c-24.96.67-45.19,20.91-45.19,45.19h0Z"/>
      <path class="cls-4" d="M715.05,597.51c3.32-3.38,7.31-6.08,11.3-8.11,3.99-2.03,8.64-4.06,13.29-4.73,4.65-1.35,9.3-2.03,13.95-1.35,4.65,0,9.3,1.35,13.29,4.06-9.3.67-17.27,2.03-25.91,4.06-7.97,2.03-16.61,4.06-25.91,6.08h0Z"/>
      <path class="cls-4" d="M874.13,596.31c-9.4-1.37-18.12-3.42-26.85-5.47-8.73-2.05-16.78-3.42-26.18-3.42,4.03-2.73,8.73-4.1,13.42-4.1,4.7-.68,9.4,0,14.1,1.37,4.7,1.37,9.4,2.73,13.43,4.79,4.7.68,8.73,3.42,12.08,6.84h0Z"/>
      <path class="cls-4" d="M754.82,622.82c0,11.32-5.4,20.49-12.05,20.49s-12.05-9.17-12.05-20.49,5.4-20.49,12.05-20.49,12.05,9.17,12.05,20.49h0Z"/>
      <path class="cls-4" d="M859.67,622.82c0,11.32-5.4,20.49-12.05,20.49s-12.05-9.17-12.05-20.49,5.4-20.49,12.05-20.49,12.05,9.17,12.05,20.49h0Z"/>
      <path class="cls-10" d="M760.85,717.01s44.94,44.14,77.13-6.21l-77.13,6.21h0Z"/>
      <polygon class="cls-8" points="843.12 790.68 820.67 852.6 794.64 831.22 777.07 816.78 758.5 831.22 732.81 851.2 712.38 792.74 741.63 779.57 777.95 811.59 812.75 779.57 843.12 790.68"/>
      <path class="cls-9" d="M796.68,618c.68,7.34,2.03,14.02,4.73,20.03,1.35,3.34,2.7,6.01,4.73,8.68,2.03,2.67,4.06,5.34,6.08,8.68,2.03,3.34,4.06,6.68,4.06,11.35,0,2.67-2.03,5.34-3.38,6.67-2.03,1.34-3.38,2-5.41,2.67-3.38,1.34-7.43,3.34-12.17,1.34-2.03-.67-3.38-3.34-4.06-4.67-.68-2,0-4.01,0-5.34.68,3.34,2.03,7.34,4.73,7.34,2.7.67,5.41-1.34,8.11-2.67,2.7-2,5.41-3.34,4.73-5.34,0-2-1.35-4.67-3.38-7.34-2.03-2.67-4.06-5.34-6.08-8.68-2.03-3.34-3.38-6.68-4.06-10.68-.68-8.01-.68-15.35,1.35-22.03h0Z"/>
    </g>
  </g>
</svg>