<?xml version="1.0" encoding="UTF-8"?>
<svg id="Layer_1" data-name="Layer 1" xmlns="http://www.w3.org/2000/svg" viewBox="0 0 1000 1000">
  <defs>
    <style>
      .cls-1 {
        fill: #b24210;
      }

      .cls-1, .cls-2, .cls-3, .cls-4, .cls-5, .cls-6, .cls-7, .cls-8, .cls-9, .cls-10, .cls-11, .cls-12, .cls-13, .cls-14 {
        fill-rule: evenodd;
        stroke-width: 0px;
      }

      .cls-2 {
        fill: #2a93fb;
      }

      .cls-3 {
        fill: #0070c0;
      }

      .cls-5 {
        fill: #ec6a30;
      }

      .cls-6 {
        fill: #ef9e89;
      }

      .cls-7 {
        fill: #40b0ff;
      }

      .cls-8 {
        fill: #fff;
      }

      .cls-15 {
        fill: none;
        stroke: #bfbfbf;
        stroke-miterlimit: 8;
        stroke-width: .72px;
      }

      .cls-9 {
        fill: #fdae95;
      }

      .cls-10 {
        fill: #162836;
      }

      .cls-11 {
        fill: #012548;
      }

      .cls-12 {
        fill: #a6a6a6;
      }

      .cls-13 {
        fill: #f09b84;
      }

      .cls-14 {
        fill: #003860;
      }
    </style>
  </defs>
  <path class="cls-7" d="M511.04,360.97c-10.33-2.73-20.83-3.7-31.34-2.91-6.44.53-12.98,1.59-19.24,3.44-1.15.26-3.35.88-5.83,2.56-2.3,1.59-3.8,3.53-4.5,5.73-1.15,3.44-.26,7.41,2.56,11.46.62.88,1.24,1.68,1.85,2.56.53.62.97,1.23,1.41,1.94,3,4.23,3.71,8.91,2.03,12.88-1.59,3.79-5.3,6.44-10.06,7.23-2.12.35-3.27.44-3.97.35-.62,0-1.77,0-3.88-.35-4.77-.79-8.47-3.44-10.06-7.23-1.68-3.97-.88-8.64,2.03-12.88.44-.62.97-1.32,1.41-1.94.62-.79,1.24-1.68,1.85-2.56,2.74-4.06,3.62-8.03,2.56-11.46-.71-2.2-2.21-4.14-4.5-5.73-2.38-1.68-4.59-2.38-5.83-2.56-6.27-1.85-12.71-2.91-19.25-3.44-8.92-.62-17.83-.09-26.66,1.76,19.33-55.38,70.98-95.68,132.24-98.15-.53,4.94-1.59,9.79-2.91,14.55v.18c-.18.71-.62,2.47-2.03,4.5-1.15,1.68-2.47,2.73-3.97,3.17-2.38.79-5.3,0-8.47-2.12-.79-.53-1.59-1.15-2.38-1.76-.71-.53-1.32-1.06-2.03-1.5-5.21-3.7-11.12-4.59-16.33-2.47-4.94,2.12-8.39,6.7-9.36,12.7-.35,1.94-.44,3.44-.44,4.41,0,1.06.09,2.56.44,4.5.97,6,4.41,10.67,9.36,12.7,5.12,2.12,11.12,1.23,16.33-2.47.71-.44,1.32-.97,2.03-1.5.79-.62,1.59-1.23,2.38-1.76,3.09-2.12,6-2.82,8.47-2.12,1.41.44,2.74,1.5,3.97,3.17,1.41,2.03,1.85,3.79,2.03,4.5v.18c1.77,6.09,2.91,12.26,3.35,18.52.79,10.76-.35,21.52-3.27,31.92h0Z"/>
  <path class="cls-2" d="M657.24,359.53c-2.82.53-5.56,1.24-8.29,2.03-8.38,2.38-16.85,3.62-25.4,3.62-2.21,0-4.5-.09-6.7-.26-6.26-.44-12.53-1.59-18.52-3.36h-.18c-.71-.18-2.56-.62-4.5-2.03-1.68-1.15-2.73-2.47-3.18-3.88-.79-2.38,0-5.3,2.12-8.48.53-.79,1.15-1.59,1.76-2.38.53-.71,1.06-1.32,1.5-2.03,3.7-5.21,4.59-11.12,2.47-16.33-2.03-4.94-6.7-8.39-12.7-9.36-1.94-.35-3.44-.44-4.41-.44-1.06,0-2.56.18-4.5.44-6,.97-10.67,4.41-12.7,9.36-2.12,5.12-1.23,11.12,2.47,16.33.53.71.97,1.41,1.5,2.03.62.79,1.23,1.59,1.76,2.38,2.12,3.09,2.82,6,2.12,8.48-.44,1.41-1.5,2.74-3.18,3.88-2.03,1.41-3.79,1.85-4.5,2.03h-.18c-6.09,1.77-12.26,2.91-18.52,3.36-10.32.79-20.64-.27-30.7-3,3-10.86,4.15-21.9,3.35-32.93-.44-6.53-1.59-12.98-3.44-19.25-.26-1.15-.88-3.35-2.56-5.83-1.59-2.3-3.53-3.8-5.73-4.5-3.44-1.15-7.41-.27-11.47,2.56-.88.62-1.68,1.24-2.56,1.85-.62.44-1.23.97-1.94,1.41-4.23,3-8.91,3.71-12.88,2.03-3.79-1.59-6.44-5.3-7.23-10.07-.35-2.12-.44-3.27-.44-3.88s.09-1.77.44-3.88c.79-4.77,3.44-8.48,7.23-10.06,3.97-1.68,8.73-.88,12.88,2.03.62.44,1.32.97,1.94,1.41.79.62,1.68,1.24,2.56,1.85,4.06,2.74,8.03,3.62,11.47,2.56,2.21-.71,4.15-2.21,5.73-4.5,1.68-2.38,2.29-4.59,2.56-5.83,1.5-5.12,2.47-10.33,3.09-15.54h2.29c63.34.18,117.5,41.14,137.17,98.18h0Z"/>
  <path class="cls-5" d="M785.03,459.32c-11.82,30.46-32.81,54.66-58.57,70.64-5.73-3.18-11.82-5.74-18.08-7.68-6.17-1.94-12.61-3.18-19.14-3.8-1.15-.18-3.44-.44-6.35.27-2.73.71-4.85,1.94-6.26,3.71-2.29,2.83-2.91,6.89-1.85,11.66.26,1.06.53,2.03.79,3,.26.79.44,1.5.62,2.3,1.23,5.03.26,9.62-2.73,12.8-2.91,3-7.23,4.15-12,3.09-2.12-.44-3.18-.79-3.79-1.06-.53-.18-1.59-.71-3.44-1.77-4.15-2.47-6.62-6.27-6.7-10.42-.09-4.33,2.29-8.48,6.62-11.3.62-.44,1.32-.88,2.03-1.24.88-.53,1.76-1.06,2.65-1.68,4.06-2.74,6.26-6.18,6.53-9.8.18-2.3-.53-4.68-2.12-6.98-1.59-2.47-3.44-3.89-4.41-4.5-5.2-3.97-10.76-7.42-16.67-10.15-9.53-4.59-19.85-7.51-30.52-8.65,1.15-10.33,3.97-20.22,8.38-29.4,2.73-5.65,6-11.04,9.88-16.07l.09-.09c.35-.62,1.5-2.12,3.53-3.44,1.68-1.15,3.26-1.59,4.85-1.5,2.56.18,4.94,1.85,7.14,5.03.53.79,1.06,1.59,1.59,2.47.44.71.88,1.41,1.32,2.21,3.53,5.3,8.73,8.3,14.29,8.21,5.38-.09,10.23-3.18,13.41-8.48.97-1.68,1.68-3,2.03-3.97.44-.97.79-2.47,1.23-4.33,1.23-6-.26-11.57-4.15-15.28-3.97-3.89-9.88-5.21-16.05-3.62-.79.18-1.59.44-2.47.71-.97.27-1.94.53-2.82.79-3.7.88-6.62.44-8.64-1.15-1.15-.97-2.03-2.47-2.47-4.42-.62-2.38-.35-4.24-.26-4.94v-.18c.62-6.27,1.76-12.54,3.62-18.54,2.91-9.36,7.23-18.19,12.97-26.22,6.88,5.03,14.2,9.09,21.96,12.19,2.21.88,4.41,1.59,6.62,2.3,6.17,1.94,12.61,3.18,19.14,3.8,1.15.18,3.44.44,6.35-.27,2.73-.71,4.85-1.94,6.26-3.71,2.29-2.83,2.91-6.89,1.76-11.66-.26-1.06-.53-2.03-.79-3-.26-.79-.44-1.59-.62-2.3-1.23-5.03-.26-9.62,2.73-12.8,2.91-3,7.23-4.15,12-3.09,2.12.44,3.18.79,3.79,1.06.53.18,1.59.71,3.44,1.77,4.15,2.47,6.62,6.27,6.7,10.42.09,4.33-2.29,8.48-6.62,11.3-.71.44-1.32.88-2.03,1.24-.88.53-1.76,1.06-2.65,1.68-4.06,2.74-6.26,6.18-6.53,9.8-.18,2.3.53,4.68,2.12,6.98,1.59,2.47,3.44,3.89,4.41,4.5,5.2,3.97,10.76,7.42,16.67,10.15,10.14,4.86,20.99,7.86,32.28,8.92h0c2.91.27,5.73.71,8.64,1.24-.97,14.22-4.15,28.87-9.7,43.27h0Z"/>
  <path class="cls-3" d="M555.77,430.26c0,.62,0,1.76-.44,3.88-.79,4.76-3.44,8.47-7.24,10.05-3.97,1.68-8.65.88-12.89-2.03-.62-.44-1.32-.97-1.94-1.41-.79-.62-1.68-1.23-2.56-1.85-4.06-2.73-8.03-3.62-11.47-2.56-2.21.71-4.15,2.2-5.74,4.5-1.68,2.38-2.29,4.67-2.56,5.82-1.77,6.26-3,12.7-3.44,19.23-.79,10.58.26,21.16,3,31.57-10.06,2.65-20.3,3.7-30.54,2.91-6.27-.44-12.53-1.59-18.54-3.35h-.18c-.71-.18-2.47-.62-4.5-2.03-1.68-1.15-2.74-2.47-3.18-3.88-.79-2.38,0-5.29,2.12-8.47.53-.79,1.15-1.59,1.77-2.38.53-.71,1.06-1.32,1.5-2.03,3.71-5.2,4.59-11.11,2.47-16.31-2.03-4.94-6.71-8.38-12.71-9.44-1.94-.26-3.44-.44-4.41-.44-1.06,0-2.56.18-4.5.44-6,.97-10.68,4.41-12.71,9.44-2.12,5.12-1.24,11.11,2.47,16.31.53.71.97,1.41,1.5,2.03.62.79,1.24,1.59,1.77,2.38,2.12,3.09,2.82,6,2.12,8.47-.44,1.41-1.5,2.73-3.18,3.88-2.03,1.41-3.8,1.85-4.5,2.03h-.18c-6.09,1.76-12.36,2.91-18.54,3.35h-.26c-21.1-25.22-33.89-57.76-33.89-93.21,0-15.08,2.29-29.63,6.53-43.21,9.09-2.12,18.36-2.82,27.63-2.12,6.27.44,12.53,1.59,18.54,3.35h.18c.71.18,2.47.62,4.5,2.03,1.68,1.15,2.74,2.47,3.18,3.88.79,2.38,0,5.29-2.12,8.47-.53.79-1.15,1.59-1.77,2.38-.53.71-1.06,1.32-1.5,2.03-3.71,5.2-4.59,11.11-2.47,16.31,2.12,4.94,6.71,8.38,12.71,9.35,1.77.26,3.27.44,4.24.44h.35c1.06,0,2.56-.18,4.32-.44,6-.97,10.68-4.41,12.71-9.35,2.12-5.11,1.24-11.11-2.47-16.31-.44-.71-.97-1.32-1.5-2.03-.62-.79-1.24-1.59-1.77-2.38-2.12-3.09-2.82-6-2.12-8.47.44-1.41,1.5-2.73,3.18-3.88,2.03-1.41,3.8-1.85,4.5-2.03h.18c6.09-1.76,12.36-2.82,18.54-3.35,10.15-.71,20.3.26,30.19,2.82-2.47,9.97-3.44,20.19-2.65,30.34.53,6.44,1.68,12.96,3.44,19.23.26,1.15.88,3.35,2.56,5.82,1.59,2.29,3.53,3.79,5.74,4.5,3.44,1.15,7.41.26,11.47-2.56.88-.62,1.68-1.23,2.56-1.85.62-.53,1.32-.97,1.94-1.41,4.24-3,8.91-3.7,12.89-2.03,3.88,1.59,6.53,5.2,7.24,10.05.35,1.76.44,2.91.44,3.53h0Z"/>
  <path class="cls-14" d="M512.28,629.47c-19.06-.71-35.48-4.23-48.36-8.12-10.06-3.09-16.94-12.35-16.94-22.94v-30.61c0-19.5-8.21-38.2-22.86-50.99-4.68-4.06-9.09-8.47-13.24-13.15,5.74-.53,11.38-1.68,16.94-3.26,1.15-.26,3.35-.88,5.82-2.56,2.29-1.59,3.79-3.53,4.5-5.73,1.15-3.44.26-7.41-2.56-11.47-.62-.88-1.24-1.68-1.85-2.56-.53-.62-.97-1.24-1.41-1.94-3-4.23-3.71-8.91-2.03-12.88,1.59-3.79,5.29-6.44,10.06-7.23,2.12-.35,3.27-.44,3.88-.35.62,0,1.76.09,3.88.35,4.77.79,8.47,3.44,10.06,7.23,1.68,3.97.88,8.73-2.03,12.88-.44.62-.97,1.32-1.41,1.94-.62.79-1.24,1.68-1.85,2.56-2.74,4.06-3.62,8.03-2.56,11.47.71,2.21,2.21,4.15,4.5,5.73,2.38,1.68,4.59,2.29,5.82,2.56,6.27,1.76,12.71,2.91,19.24,3.44,2.29.18,4.68.26,6.97.26,8.3,0,16.59-1.15,24.71-3.26,2.65,10.06,3.62,20.29,2.91,30.44-.44,6.26-1.59,12.53-3.35,18.53v.18c-.18.71-.62,2.47-2.03,4.5-1.15,1.68-2.47,2.73-3.97,3.18-2.38.79-5.29,0-8.47-2.12-.79-.53-1.59-1.15-2.38-1.76-.71-.53-1.32-1.06-2.03-1.5-5.21-3.71-11.12-4.59-16.33-2.47-4.94,2.12-8.38,6.7-9.35,12.7-.35,1.94-.44,3.44-.44,4.41,0,1.06.09,2.56.44,4.5.97,6,4.41,10.68,9.35,12.7,5.12,2.12,11.12,1.24,16.33-2.47.71-.53,1.32-.97,2.03-1.5.79-.62,1.59-1.24,2.38-1.76,3.09-2.12,6-2.82,8.47-2.12,1.41.44,2.74,1.5,3.97,3.18,1.41,2.03,1.85,3.79,2.03,4.5v.18c1.76,6.09,2.91,12.26,3.35,18.53.35,9.09-.26,18-2.21,26.82h0Z"/>
  <path class="cls-11" d="M633.64,497.38c-5.56,7.06-11.74,13.51-18.53,19.42-14.74,12.8-22.86,31.52-22.86,51.03v30.63c0,10.59-6.97,19.86-17.12,22.95-14.03,4.24-32.04,7.95-53.04,8.21h-6.27c1.85-8.92,2.47-17.92,1.85-26.93-.44-6.44-1.59-12.98-3.44-19.25-.26-1.15-.88-3.35-2.56-5.83-1.59-2.3-3.53-3.8-5.74-4.5-3.44-1.06-7.41-.27-11.47,2.56-.88.62-1.68,1.24-2.56,1.85-.62.53-1.32.97-1.94,1.41-4.24,3-8.91,3.71-12.88,2.03-3.79-1.59-6.44-5.3-7.24-10.06-.35-2.12-.44-3.27-.44-3.88s.09-1.77.44-3.88c.79-4.77,3.44-8.47,7.24-10.06,3.97-1.68,8.74-.88,12.88,2.03.62.44,1.32.97,1.94,1.41.79.62,1.68,1.24,2.56,1.85,4.06,2.74,8.03,3.62,11.47,2.56,2.21-.71,4.15-2.21,5.74-4.5,1.68-2.38,2.29-4.68,2.56-5.83,1.77-6.27,3-12.71,3.44-19.25.79-10.59-.26-21.28-3-31.69,9.97-2.65,20.21-3.62,30.45-2.91,6.27.44,12.53,1.59,18.53,3.35h.18c.71.18,2.47.62,4.5,2.03,1.68,1.15,2.74,2.47,3.18,3.88.79,2.38,0,5.3-2.12,8.48-.53.79-1.15,1.59-1.77,2.38-.53.71-1.06,1.32-1.5,2.03-3.71,5.21-4.59,11.12-2.47,16.33,2.03,4.94,6.71,8.39,12.71,9.36,1.85.27,3.27.44,4.24.44h.35c1.06,0,2.47-.18,4.32-.44,6-.97,10.68-4.41,12.71-9.36,2.12-5.12,1.24-11.12-2.47-16.33-.44-.71-.97-1.32-1.5-2.03-.62-.79-1.24-1.59-1.77-2.38-2.12-3.09-2.82-6-2.12-8.48.44-1.41,1.5-2.74,3.18-3.88,2.03-1.41,3.79-1.85,4.5-2.03h.18c6.09-1.77,12.27-2.82,18.53-3.35,5.82-.09,11.56,0,17.12.62h0Z"/>
  <polygon class="cls-1" points="180.89 737.7 180.89 678.32 238.43 678.32 238.43 618.85 298.98 618.85 298.98 559.46 360.31 559.46 363.84 737.7 180.89 737.7 180.89 737.7"/>
  <polygon class="cls-5" points="188.12 737.7 188.12 678.32 245.76 678.32 245.76 618.85 306.3 618.85 306.3 559.46 367.64 559.46 371.08 737.7 188.12 737.7 188.12 737.7"/>
  <path class="cls-12" d="M588.33,629.3c-1.41,8.39-6.79,15.54-13.24,17.74-14.56,5.12-33.27,9.71-54.8,9.8-22.68.09-42-4.77-56.65-10.15-6.27-2.29-11.38-9.36-12.62-17.65l-1.85-13.15c-.44-2.82,1.5-4.77,3.62-3.71,14.91,7.77,38.12,17.04,66.27,17.12,28.5.09,52.42-9.27,67.95-17.12,2.21-1.15,4.06.88,3.62,3.8l-2.29,13.33h0Z"/>
  <path class="cls-15" d="M588.33,629.3c-1.41,8.39-6.79,15.54-13.24,17.74-14.56,5.12-33.27,9.71-54.8,9.8-22.68.09-42-4.77-56.65-10.15-6.27-2.29-11.38-9.36-12.62-17.65l-1.85-13.15c-.44-2.82,1.5-4.77,3.62-3.71,14.91,7.77,38.12,17.04,66.27,17.12,28.5.09,52.42-9.27,67.95-17.12,2.21-1.15,4.06.88,3.62,3.8l-2.29,13.33h0Z"/>
  <path class="cls-12" d="M583.81,656.64c-1.24,7.35-6.27,13.73-12.37,15.68-13.69,4.52-31.27,8.5-51.58,8.59-21.37,0-39.66-4.34-53.44-9.12-5.92-2.04-10.69-8.33-11.75-15.68l-1.59-11.6c-.35-2.48,1.41-4.25,3.44-3.28,13.96,6.82,35.68,15.15,62.09,15.32,26.76.18,49.2-8.06,63.68-14.97,2.03-.97,3.89.8,3.44,3.28l-1.94,11.78h0Z"/>
  <path class="cls-15" d="M583.81,656.64c-1.24,7.35-6.27,13.73-12.37,15.68-13.69,4.52-31.27,8.5-51.58,8.59-21.37,0-39.66-4.34-53.44-9.12-5.92-2.04-10.69-8.33-11.75-15.68l-1.59-11.6c-.35-2.48,1.41-4.25,3.44-3.28,13.96,6.82,35.68,15.15,62.09,15.32,26.76.18,49.2-8.06,63.68-14.97,2.03-.97,3.89.8,3.44,3.28l-1.94,11.78h0Z"/>
  <path class="cls-12" d="M579.67,680.74c-1.15,6.55-5.74,12.21-11.48,13.89-12.89,3.98-29.48,7.52-48.73,7.52-20.21,0-37.43-3.98-50.4-8.23-5.56-1.86-10.06-7.43-10.95-13.98l-1.41-10.26c-.35-2.21,1.41-3.72,3.27-2.83,13.15,6.1,33.54,13.45,58.44,13.71,25.25.18,46.25-7.08,59.85-13.09,1.94-.88,3.62.71,3.27,2.92l-1.85,10.35h0Z"/>
  <path class="cls-15" d="M579.67,680.74c-1.15,6.55-5.74,12.21-11.48,13.89-12.89,3.98-29.48,7.52-48.73,7.52-20.21,0-37.43-3.98-50.4-8.23-5.56-1.86-10.06-7.43-10.95-13.98l-1.41-10.26c-.35-2.21,1.41-3.72,3.27-2.83,13.15,6.1,33.54,13.45,58.44,13.71,25.25.18,46.25-7.08,59.85-13.09,1.94-.88,3.62.71,3.27,2.92l-1.85,10.35h0Z"/>
  <path class="cls-12" d="M576.16,702.31c-.97,5.81-5.38,10.83-10.77,12.42-12.18,3.52-27.89,6.69-46.08,6.61-19.15-.09-35.48-3.61-47.75-7.49-5.3-1.67-9.44-6.69-10.24-12.51l-1.32-9.16c-.26-1.94,1.32-3.35,3.09-2.55,12.36,5.46,31.6,12.07,55.17,12.24,23.83.26,43.69-6.17,56.4-11.45,1.77-.79,3.44.62,3.09,2.64l-1.59,9.25h0Z"/>
  <path class="cls-15" d="M576.16,702.31c-.97,5.81-5.38,10.83-10.77,12.42-12.18,3.52-27.89,6.69-46.08,6.61-19.15-.09-35.48-3.61-47.75-7.49-5.3-1.67-9.44-6.69-10.24-12.51l-1.32-9.16c-.26-1.94,1.32-3.35,3.09-2.55,12.36,5.46,31.6,12.07,55.17,12.24,23.83.26,43.69-6.17,56.4-11.45,1.77-.79,3.44.62,3.09,2.64l-1.59,9.25h0Z"/>
  <path class="cls-12" d="M572.87,721.49c-.88,5.31-5.03,9.82-10.06,11.23-11.56,3.18-26.47,6.01-43.77,5.93-18.18-.09-33.71-3.36-45.36-6.9-5.03-1.5-8.91-6.01-9.71-11.32l-1.15-8.22c-.26-1.77,1.32-3.01,2.91-2.3,11.65,4.95,29.92,10.97,52.24,11.14,22.59.27,41.39-5.48,53.39-10.26,1.68-.71,3.27.53,2.91,2.39l-1.41,8.31h0Z"/>
  <path class="cls-15" d="M572.87,721.49c-.88,5.31-5.03,9.82-10.06,11.23-11.56,3.18-26.47,6.01-43.77,5.93-18.18-.09-33.71-3.36-45.36-6.9-5.03-1.5-8.91-6.01-9.71-11.32l-1.15-8.22c-.26-1.77,1.32-3.01,2.91-2.3,11.65,4.95,29.92,10.97,52.24,11.14,22.59.27,41.39-5.48,53.39-10.26,1.68-.71,3.27.53,2.91,2.39l-1.41,8.31h0Z"/>
  <path class="cls-9" d="M348.7,393.03c-.26,0-.53-.09-.79-.09l-41.15-4.24-5.21-17.41,47.33,9.02,45.74-12.29,2.74,10.08-46.53,14.76c-.79.09-1.5.18-2.12.18h0Z"/>
  <path class="cls-2" d="M303.6,368.11l43.89,10.05c7.03,2.42,35.71-10.91,36-7.92,1.21,2.76,8.83,6.37,3.12,10.68-5.71,4.31-28.12,16.49-37.39,15.16l-50.03-9.34c-4.94-2.2-7.06-7.99-4.68-12.83h0c1.94-4.04,4.68-6.94,9.09-5.8h0Z"/>
  <path class="cls-9" d="M383.73,378.94c2.73,4.35,12.17,5.24,16.67,2.31,4.59-2.93,6-8.88,3.26-13.23-2.73-4.35-10.15-4.88-14.73-1.95-4.5,2.93-8.03,8.52-5.21,12.87h0Z"/>
  <polygon class="cls-9" points="254.17 603.95 261.43 583.27 248.68 580.7 240.35 604.3 254.17 603.95 254.17 603.95"/>
  <path class="cls-9" d="M321.92,548.41c-.09-3.37-.35-6.74-.71-10.02,4.68.44,9.36.62,14.04,1.24.35,2.66,1.06,5.5,1.06,8.25-4.77.35-9.54.71-14.4.53h0Z"/>
  <path class="cls-14" d="M277.49,455.06c13.52-.63,34.31,5.03,34.31,5.03l1.21,4.77h.03c10.23,10.06,18.61,22.59,29.02,32.12,1.24,1.15,1.85,2.3,2.12,3.53.35,1.41,0,2.65-.09,2.91-.71,2.65-3.18,19.07-6.44,42.46-2.21.53-5.03.97-8.29.97s-6-.35-8.2-.79c-.97-6.27-1.59-13.77-1.32-22.24.18-7.59,1.06-14.39,2.12-20.21-5.52-3.11-11.01-6.77-16.47-10.62l-9.93-7.19-6.33,39.53c-.18,1.24-.44,2.47-.97,3.62l-30.35,73h-18.97l25.41-76.8,1.91-46.53h-.15s-4.15-14.29,1.32-20.39c1.85-2.05,5.55-2.96,10.06-3.17h0Z"/>
  <path class="cls-10" d="M321.76,547.88c-.62,2.84-1.41,5.86-2.21,8.61-.35,1.06-.44,1.77-.71,2.84,1.76,0,3.53-.09,5.29-.09.26-.35.18-.53.26-.71,0,0,.09-.27.44-.44.79-.44,19.94,2.4,30.96.98,1.5-.18,7.85-.98,8.03-2.75.26-2.75-14.47-6.3-27.43-8.96-5.03.18-9.7.8-14.64.53h0Z"/>
  <path class="cls-10" d="M240.35,603.83l-1.85,11.21c-.09,1.06-.18,2.21-.35,3.27,1.67-.09,3.35-.26,5.02-.35,0-.35.09-.79.44-1.24,1.59-2.12,6.61-.18,13.65.53,3.44.35,5.81.27,9.69,0,5.81-.35,14.18-.88,14.45-2.65.26-1.41-4.58-4.32-27.13-10.68l-13.92-.09h0Z"/>
  <path class="cls-2" d="M278.68,369.97c-14.05,8.13-13.52,19.61-14.76,34.01-3.53,21.38-6.98,42.67-10.51,64.05,11.66,3,20.41,2.21,26.24.97,8.48-1.77,19.08-4.06,25.71-6.54.97-.35,4.06-1.59,8.04-1.24,2.03.18,3.62.71,4.51.97-1.33-24.65-2.56-49.21-3.89-73.85.09-6.63-7.33-22-16.88-21.73.18,0-7.16-3.27-18.47,3.36h0Z"/>
  <path class="cls-9" d="M290.4,372.58h2.39c3.19,0,5.75-2.57,5.75-5.75l.18-24.61-13.98.09-.18,24.52c0,3.1,2.57,5.75,5.84,5.75h0Z"/>
  <path class="cls-9" d="M326.8,419.61c-1.06,0-2.21-.27-3.18-.79l-34.5-13.24-3.62-22.15,42.53,22.5,43.86-2.29,1.24,10.5-45.53,5.38c-.26.09-.53.09-.79.09h0Z"/>
  <path class="cls-13" d="M284.56,356.06s3.81,9.47,14,8.77v-7.46l-14-1.32h0Z"/>
  <path class="cls-4" d="M311.33,324.28s14.3,1.68,1.23,16.52l-3.77-10.16,2.54-6.36h0Z"/>
  <path class="cls-9" d="M296.67,361.56h0c8.97,0,16.36-7.41,16.36-16.4v-15.78c0-3.88-3.17-7.14-7.12-7.14h-18.47c-3.87,0-7.12,3.17-7.12,7.14v15.78c.09,8.99,7.39,16.4,16.36,16.4h0Z"/>
  <path class="cls-4" d="M300.31,311.86c-8.3-1.15-12.36-2.3-16.33.35-4.41,2.91-5.65,8.56-6.09,11.92-.71-.09-2.65-.09-4.33,2.03-2.03,2.65,2.91,14.48,2.91,14.48h6.44s8.92-4.86,5.12-14.83h0c3.97,1.59,18.62,7.15,31.69,0,3.62-2.03,10.15-6.62,9.27-9.8-.88-3.27-8.56-1.24-28.69-4.15h0Z"/>
  <path class="cls-9" d="M273.07,342.76c0,3.26,2.64,5.9,5.9,5.9s5.9-2.64,5.9-5.9-2.64-5.9-5.9-5.9c-3.26.09-5.9,2.73-5.9,5.9h0Z"/>
  <path class="cls-4" d="M290.69,334.82c.43-.44.95-.79,1.47-1.06.52-.26,1.13-.53,1.73-.62.61-.18,1.21-.27,1.82-.18.61,0,1.21.18,1.73.53-1.21.09-2.25.26-3.38.53-1.04.26-2.17.53-3.38.79h0Z"/>
  <path class="cls-4" d="M311.46,334.66c-1.23-.18-2.37-.45-3.5-.71-1.14-.27-2.19-.45-3.42-.45.53-.36,1.14-.54,1.75-.54.61-.09,1.23,0,1.84.18.61.18,1.23.36,1.75.62.61.09,1.14.45,1.58.89h0Z"/>
  <path class="cls-4" d="M295.89,338.12c0,1.48-.7,2.67-1.57,2.67s-1.57-1.2-1.57-2.67.7-2.67,1.57-2.67,1.57,1.2,1.57,2.67h0Z"/>
  <path class="cls-4" d="M309.57,338.12c0,1.48-.7,2.67-1.57,2.67s-1.57-1.2-1.57-2.67.7-2.67,1.57-2.67,1.57,1.2,1.57,2.67h0Z"/>
  <path class="cls-8" d="M296.67,350.42s5.87,5.76,10.07-.81l-10.07.81h0Z"/>
  <path class="cls-6" d="M301.35,337.49c.09.96.26,1.83.62,2.61.18.44.35.78.62,1.13.26.35.53.7.79,1.13.26.44.53.87.53,1.48,0,.35-.26.7-.44.87-.26.17-.44.26-.71.35-.44.17-.97.44-1.59.17-.26-.09-.44-.44-.53-.61-.09-.26,0-.52,0-.7.09.44.26.96.62.96.35.09.71-.17,1.06-.35.35-.26.71-.44.62-.7,0-.26-.18-.61-.44-.96-.26-.35-.53-.7-.79-1.13-.26-.44-.44-.87-.53-1.39-.09-1.05-.09-2,.18-2.88h0Z"/>
  <path class="cls-3" d="M291.64,372.9l1.83,5.54,4.52,4.16c.23,22.28.46,44.56.7,66.84l9.74,5.89,3.83-8.66-12.17-63.72,1.04-6.67c-1.28-.92-2.29-5.14-3.57-6.06-1.45,1.93-3.68,2.05-5.91,2.68h0Z"/>
  <path class="cls-9" d="M370.38,412.73c3.34,3.9,12.66,3.55,16.8,0,4.13-3.55,4.75-9.58,1.49-13.49-3.34-3.9-10.64-3.46-14.77.09-4.13,3.55-6.86,9.49-3.52,13.4h0Z"/>
  <path class="cls-2" d="M289.71,381.63l40.78,21.82c-1.38.35,39.46-1.73,38.08-1.38,1.67,2.94,7.67,11.86,1.04,15.55-6.63,3.69-30.33,10.47-41.19,7.6s-38.69-17.14-49.2-26.23c-4.68-3.35-5.65-9.95-2.12-14.45h0c3-3.79,8.21-5.02,12.62-2.91h0Z"/>
  <polygon class="cls-9" points="817.54 691.64 811.31 674.62 801.18 675.24 808.11 695.7 817.54 691.64 817.54 691.64"/>
  <path class="cls-10" d="M817.7,691.61l1.42,8.49c0,1.24-.97,2.21-2.21,2.21h-22.83c-1.06,0-1.86-.88-1.86-1.86h0c0-.62.27-1.15.71-1.5l13.45-7.34h11.33Z"/>
  <polygon class="cls-9" points="779.94 692.96 777.2 675 767.2 673.67 769.94 695.07 779.94 692.96 779.94 692.96"/>
  <path class="cls-10" d="M780.28,691.4l1.23,8.55c0,1.23-1.06,2.2-2.29,2.2l-22.76-.53c-1.06,0-1.85-.88-1.85-1.94h0c0-.62.26-1.15.79-1.5l13.49-7.05,11.38.26h0Z"/>
  <path class="cls-14" d="M790.92,579.16c3.38-.14,6.29.16,8.03,1.22,4.16,2.45,2.63,10.99,1.6,15.11l-.62,2.23.08.02,1.76,35.17,16.4,52.18-16.31.53-17.89-52.1-1.59-12.95-2.02,20.09c-.26,14.02-.44,28.12-.71,42.13-4.85.62-9.78,1.15-14.63,1.76-.79-15.25-1.59-30.5-2.38-45.75l.62-42.66h0,0l3.09-12.16s14.43-4.41,24.58-4.83h0Z"/>
  <path class="cls-9" d="M733.69,521.19c2.38.53,4.68-3.79,2.74-5.21-3.27-2.38-7.33-6-8.03-9.44-1.24-5.91-9.8,3.79-1.5,11.12,2.65,2.38,4.94,3.09,6.8,3.53h0Z"/>
  <polygon class="cls-9" points="736.33 516.2 739.83 524.92 735.02 529.42 728.81 517.35 736.33 516.2 736.33 516.2"/>
  <path class="cls-2" d="M750.72,556.89c-1.32-.53-2.47-1.5-3.26-2.82l-18.79-29.01,11.65-6.97,15.71,23.9,25.94-9.7,1.76,12.52-27.79,12.08c-1.68.71-3.62.71-5.21,0h0Z"/>
  <path class="cls-2" d="M762.81,530.5c.97-4.32,4.67-7.41,8.99-8.12,6.17-.97,17.8-2.29,22.55.71,0,0,7.66,3.09,6.52,24.97-.53,9.79,4.4,38.11,4.4,38.11,0,0-21.14,8.65-41.93-2.56l-.97-46.05c.09,0-.35-3.44.44-7.06h0Z"/>
  <path class="cls-3" d="M779,526.43l-1.18,3.58-2.93,2.69c-.15,14.41-.3,28.83-.45,43.24l-6.32,3.81-2.48-5.6,7.9-41.22-.68-4.31c.83-.6,1.49-3.32,2.31-3.92.94,1.25,2.39,1.33,3.84,1.74h0Z"/>
  <path class="cls-9" d="M753.04,520.1s-4.51-11.93-11.85-8.69c-7.34,3.25-.18,5.61,1.5,8.51,1.68,3.16,2.39,5.09,2.39,5.09l7.96-4.91h0Z"/>
  <path class="cls-2" d="M765.94,560.25c-.26,0-.62,0-.88-.09-2.12-.26-3.97-1.5-5.02-3.35l-17.54-31.23,11.81-6.7,13.13,23.38,18.15-18.44,9.61,9.53-24.5,24.79c-1.23,1.41-2.91,2.12-4.76,2.12h0Z"/>
  <polygon class="cls-9" points="785.38 521.65 776.01 522.97 778.59 509.6 787.96 510.83 785.38 521.65 785.38 521.65"/>
  <path class="cls-13" d="M787.33,513.62s-3.22,6.32-10.54,4.89l1.79-9.07,8.75,4.18h0Z"/>
  <path class="cls-4" d="M771.07,493.47s-1.41-14.04,6.62-12.19c0,0,2.47-7.24,10.33-5.12,7.86,2.12,5.74,8.74,8.03,10.86,2.3,2.03,7.68,5.56,4.06,10.77-3.62,5.3-6.09,6.45-6.09,6.45l-22.96-10.77h0Z"/>
  <path class="cls-9" d="M775,515.04h0c-5.93-2.3-8.84-8.92-6.54-14.84l4.51-11.75c2.3-5.92,8.93-8.84,14.86-6.54h0c5.93,2.3,10.26,9.37,8.05,15.29l-4.51,11.75c-2.39,5.92-10.52,8.39-16.36,6.1h0Z"/>
  <path class="cls-9" d="M796.18,507.11c-.8,1.95-3.01,3.01-4.95,2.21s-3.01-3.01-2.21-4.96c.8-1.95,3.01-3.01,4.95-2.21,2.03.8,3.01,3.01,2.21,4.96h0Z"/>
  <polygon class="cls-9" points="785.29 521.55 774.12 529.89 776.05 522.62 785.29 521.55 785.29 521.55"/>
  <path class="cls-4" d="M785.45,495.28c-.27-.43-.62-.78-.98-1.04-.36-.26-.71-.52-1.16-.69-.45-.17-.8-.35-1.25-.43-.45-.09-.89,0-1.34.17.8.17,1.6.52,2.32.87.8.35,1.6.78,2.4,1.13h0Z"/>
  <path class="cls-4" d="M771.76,492.45c.73,0,1.55-.08,2.28-.08s1.46-.08,2.28.08c-.27-.31-.64-.47-1-.55-.36-.08-.82-.08-1.19-.08s-.82.08-1.19.16c-.36.08-.82.24-1.19.47h0Z"/>
  <path class="cls-4" d="M781.13,497.25c-.27,1.24.09,2.39.72,2.57.63.18,1.35-.8,1.62-2.04.27-1.24-.09-2.39-.72-2.48-.63-.18-1.35.71-1.62,1.95h0Z"/>
  <path class="cls-4" d="M772.26,495.17c-.36,1.15-.18,2.12.36,2.3.54.18,1.26-.71,1.53-1.85.27-1.15.09-2.12-.45-2.21-.45-.09-1.08.71-1.44,1.77h0Z"/>
  <path class="cls-8" d="M778.52,507.29s-4.26,5.53-7.55-1.16l7.55,1.16h0Z"/>
  <path class="cls-6" d="M777.58,495.91c-.26.71-.52,1.41-.87,2.03-.17.26-.35.62-.61.79-.17.26-.52.53-.78.79-.26.35-.52.62-.7,1.15-.09.26,0,.62.17.79.09.18.26.35.35.44.26.18.52.53.96.44.26-.09.35-.26.43-.44.09-.18.09-.44.17-.62-.17.35-.35.79-.61.71-.26,0-.43-.26-.7-.53-.17-.26-.35-.53-.26-.71.09-.18.26-.53.52-.79.26-.26.43-.53.78-.79.26-.35.43-.71.61-1.06.35-.62.52-1.41.52-2.2h0Z"/>
  <path class="cls-4" d="M795.51,487.69h0c-.53-1.94-1.32-3.71-2.82-4.41-4.41-2.29-8.64-3.88-8.64-3.88l-8.81,3.8-3.79,7.15v2.82l2.03-5.21s.71-2.65,3.88-1.59c2.38.79,1.67,5.83,8.64,9.18,3.08,1.5,5.38,1.85,6.96,1.77l-2.03,5.21,3.35-.53,4.23-8.12-3-6.18h0Z"/>
</svg>