<svg width="335" height="251" viewBox="0 0 335 251" fill="none" xmlns="http://www.w3.org/2000/svg">
<path fill-rule="evenodd" clip-rule="evenodd" d="M172.971 52.5506C167.561 51.1207 162.061 50.6126 156.556 51.0264C153.183 51.304 149.757 51.8592 146.479 52.8282C145.876 52.9644 144.724 53.2891 143.425 54.1691C142.22 55.0019 141.435 56.018 141.068 57.1704C140.466 58.9722 140.932 61.0516 142.409 63.1729C142.734 63.6338 143.058 64.0528 143.378 64.5138C143.655 64.8385 143.886 65.158 144.116 65.5299C145.688 67.7455 146.06 70.1968 145.18 72.2762C144.347 74.2614 142.404 75.6494 139.91 76.0632C138.8 76.2465 138.198 76.2936 137.831 76.2465C137.506 76.2465 136.904 76.2465 135.799 76.0632C133.3 75.6494 131.362 74.2614 130.529 72.2762C129.649 70.1968 130.068 67.7507 131.593 65.5299C131.823 65.2052 132.101 64.8385 132.331 64.5138C132.656 64.1 132.981 63.6338 133.3 63.1729C134.735 61.0463 135.196 58.9669 134.641 57.1704C134.269 56.018 133.484 55.0019 132.284 54.1691C131.037 53.2891 129.88 52.9225 129.23 52.8282C125.946 51.8592 122.573 51.304 119.148 51.0264C114.475 50.7016 109.809 50.9793 105.184 51.9483C115.308 22.9412 142.362 1.8328 174.449 0.539062C174.171 3.12655 173.616 5.66688 172.924 8.16008V8.25436C172.83 8.62624 172.6 9.5481 171.861 10.6114C171.259 11.4913 170.567 12.0413 169.782 12.2718C168.535 12.6856 167.006 12.2718 165.345 11.1614C164.931 10.8838 164.512 10.559 164.099 10.2395C163.727 9.96189 163.407 9.68429 163.035 9.45382C160.306 7.51583 157.211 7.04967 154.482 8.16008C151.894 9.2705 150.087 11.6694 149.579 14.8121C149.396 15.8283 149.349 16.6139 149.349 17.122C149.349 17.6772 149.396 18.4629 149.579 19.479C150.087 22.6217 151.889 25.0678 154.482 26.131C157.164 27.2415 160.306 26.7753 163.035 24.8373C163.407 24.6068 163.727 24.3292 164.099 24.0516C164.512 23.7269 164.931 23.4074 165.345 23.1298C166.964 22.0193 168.488 21.6527 169.782 22.0193C170.52 22.2498 171.217 22.805 171.861 23.6797C172.6 24.743 172.83 25.6649 172.924 26.0368V26.131C173.851 29.3209 174.449 32.5526 174.679 35.8315C175.093 41.4674 174.496 47.1033 172.966 52.5506H172.971Z" fill="#40B0FF"/>
<path fill-rule="evenodd" clip-rule="evenodd" d="M249.546 51.7979C248.069 52.0756 246.634 52.4474 245.204 52.8612C240.814 54.1078 236.378 54.7573 231.9 54.7573C230.742 54.7573 229.543 54.7102 228.39 54.6211C225.111 54.3907 221.827 53.7883 218.69 52.8612H218.596C218.224 52.7669 217.255 52.5365 216.239 51.7979C215.359 51.1956 214.809 50.5042 214.573 49.7657C214.159 48.5191 214.573 46.9896 215.683 45.324C215.961 44.9102 216.286 44.4912 216.605 44.0774C216.883 43.7055 217.16 43.386 217.391 43.0141C219.329 40.2852 219.795 37.1897 218.685 34.4608C217.621 31.8733 215.175 30.0662 212.033 29.5582C211.017 29.3749 210.231 29.3277 209.723 29.3277C209.168 29.3277 208.382 29.422 207.366 29.5582C204.223 30.0662 201.777 31.868 200.714 34.4608C199.603 37.1425 200.069 40.2852 202.007 43.0141C202.285 43.386 202.516 43.7527 202.793 44.0774C203.118 44.4912 203.437 44.9102 203.715 45.324C204.825 46.9425 205.192 48.4667 204.825 49.7657C204.595 50.5042 204.04 51.2008 203.16 51.7979C202.097 52.5365 201.175 52.7669 200.803 52.8612H200.709C197.519 53.7883 194.287 54.3854 191.008 54.6211C185.603 55.0349 180.197 54.4797 174.928 53.0498C176.499 47.3615 177.102 41.579 176.683 35.8016C176.452 32.3814 175.85 29.003 174.881 25.7188C174.745 25.1165 174.42 23.9642 173.54 22.6652C172.707 21.4605 171.691 20.6748 170.539 20.3082C168.737 19.7058 166.657 20.1668 164.531 21.6491C164.07 21.9738 163.651 22.2986 163.19 22.6181C162.865 22.8485 162.546 23.1261 162.174 23.3566C159.958 24.9279 157.507 25.2998 155.428 24.4199C153.442 23.5871 152.054 21.6438 151.641 19.1454C151.457 18.035 151.41 17.4326 151.41 17.1131C151.41 16.7936 151.457 16.186 151.641 15.0808C152.054 12.5824 153.442 10.6392 155.428 9.81159C157.507 8.93164 160 9.35066 162.174 10.8749C162.499 11.1053 162.865 11.3829 163.19 11.6134C163.604 11.9381 164.07 12.2629 164.531 12.5824C166.657 14.0176 168.737 14.4785 170.539 13.9233C171.696 13.5514 172.712 12.7657 173.54 11.5663C174.42 10.3197 174.739 9.16211 174.881 8.51262C175.666 5.83086 176.175 3.10195 176.499 0.373047H177.699C210.875 0.467328 239.243 21.9214 249.546 51.7979Z" fill="#2A93FB"/>
<path fill-rule="evenodd" clip-rule="evenodd" d="M316.479 104.065C310.288 120.02 299.293 132.695 285.801 141.065C282.8 139.4 279.61 138.059 276.331 137.043C273.099 136.027 269.726 135.377 266.306 135.052C265.703 134.958 264.504 134.822 262.98 135.194C261.55 135.566 260.439 136.21 259.701 137.137C258.501 138.619 258.177 140.746 258.732 143.244C258.868 143.8 259.009 144.308 259.146 144.816C259.282 145.229 259.376 145.601 259.47 146.02C260.115 148.655 259.606 151.059 258.04 152.725C256.516 154.296 254.253 154.898 251.755 154.343C250.645 154.113 250.089 153.929 249.77 153.788C249.492 153.694 248.937 153.416 247.968 152.861C245.794 151.567 244.501 149.577 244.459 147.403C244.412 145.135 245.658 142.962 247.926 141.484C248.251 141.254 248.618 141.024 248.989 140.835C249.45 140.557 249.911 140.28 250.377 139.955C252.504 138.52 253.656 136.718 253.798 134.822C253.892 133.617 253.52 132.371 252.687 131.166C251.854 129.872 250.885 129.128 250.377 128.809C247.654 126.729 244.742 124.922 241.646 123.493C236.654 121.088 231.249 119.559 225.66 118.962C226.263 113.551 227.74 108.371 230.049 103.563C231.479 100.603 233.192 97.7801 235.224 95.1455L235.272 95.0983C235.455 94.7736 236.057 93.9879 237.121 93.2965C238 92.6942 238.828 92.4637 239.661 92.5108C241.002 92.6051 242.248 93.4798 243.401 95.1455C243.678 95.5592 243.956 95.9783 244.233 96.4392C244.464 96.8111 244.694 97.1777 244.925 97.5967C246.774 100.373 249.497 101.944 252.41 101.897C255.228 101.85 257.768 100.231 259.434 97.4553C259.942 96.5754 260.314 95.884 260.497 95.3759C260.727 94.8678 260.911 94.0822 261.141 93.1079C261.785 89.9652 261.005 87.0478 258.967 85.1045C256.888 83.067 253.792 82.3756 250.561 83.2085C250.147 83.3027 249.728 83.4389 249.267 83.5803C248.759 83.7218 248.251 83.8579 247.79 83.9941C245.852 84.4551 244.322 84.2246 243.264 83.3918C242.662 82.8837 242.201 82.098 241.971 81.0767C241.646 79.8301 241.787 78.8558 241.835 78.4892V78.3949C242.159 75.1108 242.756 71.8267 243.731 68.684C245.255 63.7814 247.518 59.1564 250.524 54.9504C254.128 57.585 257.962 59.7116 262.026 61.3353C263.184 61.7962 264.336 62.1681 265.494 62.54C268.725 63.5562 272.099 64.2056 275.519 64.5304C276.121 64.6247 277.321 64.7609 278.845 64.389C280.275 64.0171 281.385 63.3728 282.124 62.4457C283.323 60.9634 283.648 58.8369 283.046 56.3385C282.91 55.7832 282.768 55.2752 282.632 54.7671C282.496 54.3533 282.401 53.9343 282.307 53.5624C281.663 50.9278 282.171 48.5236 283.737 46.858C285.261 45.2867 287.524 44.6843 290.022 45.2395C291.133 45.47 291.688 45.6533 292.008 45.7947C292.285 45.889 292.84 46.1666 293.809 46.7218C295.983 48.0156 297.277 50.0059 297.319 52.1796C297.366 54.4476 296.119 56.6213 293.851 58.0984C293.479 58.3288 293.16 58.5593 292.788 58.7478C292.327 59.0254 291.866 59.3031 291.4 59.6278C289.273 61.063 288.121 62.8648 287.98 64.7609C287.885 65.9656 288.257 67.2122 289.09 68.4169C289.923 69.7106 290.892 70.4544 291.4 70.7739C294.124 72.8533 297.036 74.6603 300.131 76.0903C305.443 78.6358 311.126 80.2072 317.039 80.7624C318.563 80.9038 320.04 81.1343 321.565 81.4119C321.057 88.8601 319.391 96.5335 316.484 104.076L316.479 104.065Z" fill="#EC6A30"/>
<path fill-rule="evenodd" clip-rule="evenodd" d="M196.402 88.845C196.402 89.1697 196.402 89.7668 196.172 90.8772C195.758 93.3704 194.37 95.3137 192.379 96.1412C190.3 97.0212 187.849 96.6022 185.628 95.078C185.303 94.8475 184.936 94.5699 184.612 94.3394C184.198 94.0147 183.732 93.6952 183.271 93.3704C181.144 91.9405 179.065 91.4743 177.263 92.0296C176.105 92.4014 175.089 93.1819 174.256 94.3866C173.377 95.6332 173.057 96.8326 172.916 97.435C171.989 100.714 171.344 104.087 171.114 107.507C170.7 113.049 171.25 118.591 172.685 124.043C167.416 125.431 162.052 125.981 156.689 125.567C153.405 125.337 150.126 124.734 146.978 123.813H146.884C146.512 123.718 145.59 123.488 144.527 122.749C143.647 122.147 143.091 121.456 142.861 120.717C142.447 119.47 142.861 117.946 143.971 116.281C144.249 115.867 144.574 115.448 144.899 115.034C145.176 114.662 145.454 114.343 145.684 113.971C147.627 111.247 148.088 108.152 146.978 105.428C145.915 102.84 143.463 101.039 140.321 100.483C139.305 100.347 138.519 100.253 138.011 100.253C137.456 100.253 136.67 100.347 135.654 100.483C132.511 100.991 130.06 102.793 128.996 105.428C127.886 108.11 128.347 111.247 130.29 113.971C130.568 114.343 130.798 114.709 131.076 115.034C131.401 115.448 131.725 115.867 132.003 116.281C133.113 117.899 133.48 119.423 133.113 120.717C132.883 121.456 132.328 122.147 131.448 122.749C130.385 123.488 129.457 123.718 129.091 123.813H128.996C125.807 124.734 122.523 125.337 119.286 125.567H119.149C108.098 112.358 101.398 95.3137 101.398 76.7456C101.398 68.847 102.598 61.226 104.819 54.113C109.58 53.0026 114.435 52.6359 119.291 53.0026C122.575 53.233 125.854 53.8354 129.002 54.7572H129.096C129.468 54.8515 130.39 55.082 131.453 55.8205C132.333 56.4229 132.888 57.1143 133.119 57.8528C133.532 59.0994 133.119 60.6236 132.008 62.2892C131.731 62.703 131.406 63.122 131.081 63.5358C130.804 63.9077 130.526 64.2272 130.295 64.5991C128.352 67.3228 127.891 70.4183 129.002 73.142C130.112 75.7295 132.516 77.5313 135.659 78.0393C136.586 78.1755 137.372 78.2698 137.88 78.2698H138.063C138.618 78.2698 139.404 78.1755 140.326 78.0393C143.469 77.5313 145.92 75.7295 146.983 73.142C148.094 70.4655 147.633 67.3228 145.689 64.5991C145.459 64.2272 145.181 63.9077 144.904 63.5358C144.579 63.122 144.254 62.703 143.977 62.2892C142.866 60.6707 142.5 59.1465 142.866 57.8528C143.097 57.1143 143.652 56.4229 144.532 55.8205C145.595 55.082 146.522 54.8515 146.889 54.7572H146.983C150.173 53.8354 153.457 53.2802 156.694 53.0026C162.01 52.6307 167.327 53.1387 172.507 54.4796C171.213 59.7017 170.705 65.0548 171.119 70.3712C171.397 73.7443 171.999 77.1594 172.921 80.4435C173.057 81.0459 173.382 82.1982 174.262 83.4919C175.095 84.6914 176.111 85.4771 177.268 85.8489C179.07 86.4513 181.149 85.9851 183.276 84.5081C183.737 84.1833 184.156 83.8638 184.617 83.5391C184.942 83.2615 185.308 83.031 185.633 82.8005C187.854 81.2292 190.3 80.8625 192.385 81.7372C194.417 82.5701 195.805 84.4609 196.177 87.0012C196.36 87.9231 196.407 88.5255 196.407 88.8502L196.402 88.845Z" fill="#0070C0"/>
<path fill-rule="evenodd" clip-rule="evenodd" d="M173.619 193.186C163.636 192.814 155.036 190.97 148.289 188.933C143.02 187.314 139.416 182.464 139.416 176.917V160.884C139.416 150.67 135.116 140.876 127.443 134.176C124.991 132.05 122.682 129.74 120.508 127.289C123.514 127.011 126.468 126.409 129.381 125.581C129.983 125.445 131.135 125.12 132.429 124.24C133.629 123.408 134.414 122.391 134.786 121.239C135.388 119.437 134.922 117.358 133.445 115.231C133.12 114.77 132.796 114.351 132.476 113.89C132.199 113.566 131.968 113.241 131.738 112.874C130.166 110.659 129.794 108.207 130.674 106.128C131.507 104.143 133.445 102.755 135.944 102.341C137.054 102.158 137.656 102.111 137.976 102.158C138.301 102.158 138.898 102.205 140.008 102.341C142.507 102.755 144.445 104.143 145.277 106.128C146.157 108.207 145.738 110.701 144.214 112.874C143.984 113.199 143.706 113.566 143.476 113.89C143.151 114.304 142.826 114.77 142.507 115.231C141.071 117.358 140.611 119.437 141.166 121.239C141.538 122.397 142.323 123.413 143.523 124.24C144.769 125.12 145.927 125.44 146.571 125.581C149.855 126.503 153.228 127.105 156.649 127.383C157.848 127.477 159.1 127.519 160.3 127.519C164.647 127.519 168.989 126.917 173.242 125.812C174.63 131.081 175.138 136.439 174.766 141.756C174.536 145.034 173.934 148.319 173.012 151.461V151.556C172.917 151.927 172.687 152.849 171.948 153.913C171.346 154.793 170.655 155.342 169.869 155.578C168.622 155.992 167.098 155.578 165.433 154.468C165.019 154.19 164.6 153.865 164.186 153.546C163.814 153.268 163.495 152.991 163.123 152.76C160.394 150.817 157.298 150.356 154.569 151.467C151.982 152.577 150.18 154.976 149.672 158.119C149.489 159.135 149.442 159.92 149.442 160.428C149.442 160.984 149.489 161.769 149.672 162.785C150.18 165.928 151.982 168.379 154.569 169.437C157.251 170.548 160.394 170.087 163.123 168.144C163.495 167.866 163.814 167.636 164.186 167.358C164.6 167.033 165.019 166.709 165.433 166.436C167.051 165.326 168.575 164.959 169.869 165.326C170.608 165.556 171.304 166.111 171.948 166.991C172.687 168.055 172.917 168.977 173.012 169.348V169.443C173.934 172.633 174.536 175.864 174.766 179.148C174.95 183.91 174.63 188.576 173.609 193.196L173.619 193.186Z" fill="#003860"/>
<path fill-rule="evenodd" clip-rule="evenodd" d="M237.182 123.999C234.27 127.697 231.033 131.075 227.477 134.17C219.756 140.875 215.503 150.68 215.503 160.899V176.943C215.503 182.489 211.852 187.345 206.536 188.963C199.187 191.184 189.754 193.127 178.754 193.264H175.47C176.439 188.591 176.764 183.877 176.439 179.158C176.209 175.785 175.606 172.359 174.637 169.075C174.501 168.473 174.176 167.321 173.297 166.022C172.464 164.817 171.448 164.031 170.29 163.665C168.488 163.109 166.409 163.523 164.282 165.006C163.821 165.33 163.402 165.655 162.941 165.975C162.617 166.252 162.25 166.483 161.925 166.713C159.704 168.284 157.258 168.656 155.179 167.776C153.194 166.944 151.806 165 151.387 162.507C151.203 161.397 151.156 160.794 151.156 160.475C151.156 160.155 151.203 159.548 151.387 158.443C151.801 155.944 153.189 154.006 155.179 153.173C157.258 152.293 159.757 152.712 161.925 154.237C162.25 154.467 162.617 154.745 162.941 154.975C163.355 155.3 163.821 155.625 164.282 155.944C166.409 157.379 168.488 157.84 170.29 157.285C171.448 156.913 172.464 156.127 173.297 154.928C174.176 153.681 174.496 152.477 174.637 151.874C175.564 148.59 176.209 145.217 176.439 141.791C176.853 136.245 176.303 130.645 174.868 125.193C180.09 123.805 185.453 123.297 190.817 123.669C194.101 123.899 197.38 124.501 200.523 125.423H200.617C200.989 125.518 201.911 125.748 202.974 126.487C203.854 127.089 204.409 127.78 204.64 128.519C205.053 129.765 204.64 131.295 203.529 132.961C203.252 133.374 202.927 133.793 202.602 134.207C202.325 134.579 202.047 134.899 201.816 135.27C199.873 137.999 199.412 141.095 200.523 143.824C201.586 146.411 204.037 148.218 207.18 148.726C208.149 148.868 208.893 148.957 209.401 148.957H209.584C210.139 148.957 210.878 148.863 211.847 148.726C214.99 148.218 217.441 146.416 218.504 143.824C219.615 141.142 219.154 137.999 217.21 135.27C216.98 134.899 216.702 134.579 216.425 134.207C216.1 133.793 215.775 133.374 215.498 132.961C214.387 131.342 214.021 129.818 214.387 128.519C214.618 127.78 215.173 127.084 216.053 126.487C217.116 125.748 218.038 125.518 218.41 125.423H218.504C221.694 124.496 224.931 123.946 228.21 123.669C231.258 123.622 234.265 123.669 237.177 123.993L237.182 123.999Z" fill="#012548"/>
<path fill-rule="evenodd" clip-rule="evenodd" d="M0.0429688 249.875V218.772H30.1814V187.623H61.8964V156.516H94.0199L95.8689 249.875H0.0429688Z" fill="#B24210"/>
<path fill-rule="evenodd" clip-rule="evenodd" d="M3.83203 249.875V218.772H34.0228V187.623H65.7326V156.516H97.8614L99.6632 249.875H3.83203Z" fill="#EC6A30"/>
<path fill-rule="evenodd" clip-rule="evenodd" d="M213.454 193.097C212.715 197.492 209.897 201.237 206.519 202.389C198.893 205.071 189.093 207.475 177.816 207.522C165.936 207.57 155.817 205.024 148.143 202.206C144.859 201.007 142.183 197.303 141.533 192.961L140.564 186.073C140.334 184.596 141.35 183.575 142.46 184.13C150.27 188.2 162.427 193.055 177.171 193.097C192.099 193.145 204.628 188.242 212.762 184.13C213.92 183.528 214.889 184.591 214.658 186.121L213.459 193.103L213.454 193.097Z" fill="#A6A6A6"/>
<path d="M213.454 193.097C212.715 197.492 209.897 201.237 206.519 202.389C198.893 205.071 189.093 207.475 177.816 207.522C165.936 207.57 155.817 205.024 148.143 202.206C144.859 201.007 142.183 197.303 141.533 192.961L140.564 186.073C140.334 184.596 141.35 183.575 142.46 184.13C150.27 188.2 162.427 193.055 177.171 193.097C192.099 193.145 204.628 188.242 212.762 184.13C213.92 183.528 214.889 184.591 214.658 186.121L213.459 193.103L213.454 193.097Z" stroke="#BFBFBF" stroke-width="0.72" stroke-miterlimit="8"/>
<path fill-rule="evenodd" clip-rule="evenodd" d="M211.087 207.418C210.438 211.268 207.803 214.61 204.608 215.631C197.437 217.998 188.229 220.083 177.591 220.13C166.398 220.13 156.818 217.857 149.6 215.353C146.5 214.285 144.001 210.99 143.446 207.14L142.613 201.065C142.43 199.766 143.352 198.838 144.415 199.347C151.727 202.919 163.104 207.282 176.937 207.371C190.953 207.465 202.707 203.149 210.291 199.53C211.354 199.022 212.329 199.949 212.093 201.248L211.077 207.418H211.087Z" fill="#A6A6A6"/>
<path d="M211.087 207.418C210.438 211.268 207.803 214.61 204.608 215.631C197.437 217.998 188.229 220.083 177.591 220.13C166.398 220.13 156.818 217.857 149.6 215.353C146.5 214.285 144.001 210.99 143.446 207.14L142.613 201.065C142.43 199.766 143.352 198.838 144.415 199.347C151.727 202.919 163.104 207.282 176.937 207.371C190.953 207.465 202.707 203.149 210.291 199.53C211.354 199.022 212.329 199.949 212.093 201.248L211.077 207.418H211.087Z" stroke="#BFBFBF" stroke-width="0.72" stroke-miterlimit="8"/>
<path fill-rule="evenodd" clip-rule="evenodd" d="M208.917 220.04C208.315 223.471 205.911 226.436 202.904 227.316C196.153 229.4 187.463 231.254 177.38 231.254C166.795 231.254 157.775 229.17 150.982 226.944C148.07 225.969 145.713 223.052 145.246 219.621L144.508 214.247C144.324 213.09 145.246 212.299 146.221 212.765C153.108 215.96 163.788 219.81 176.83 219.946C190.056 220.04 201.055 216.238 208.179 213.09C209.195 212.629 210.075 213.462 209.892 214.619L208.923 220.04H208.917Z" fill="#A6A6A6"/>
<path d="M208.917 220.04C208.315 223.471 205.911 226.436 202.904 227.316C196.153 229.4 187.463 231.254 177.38 231.254C166.795 231.254 157.775 229.17 150.982 226.944C148.07 225.969 145.713 223.052 145.246 219.621L144.508 214.247C144.324 213.09 145.246 212.299 146.221 212.765C153.108 215.96 163.788 219.81 176.83 219.946C190.056 220.04 201.055 216.238 208.179 213.09C209.195 212.629 210.075 213.462 209.892 214.619L208.923 220.04H208.917Z" stroke="#BFBFBF" stroke-width="0.72" stroke-miterlimit="8"/>
<path fill-rule="evenodd" clip-rule="evenodd" d="M207.084 231.339C206.576 234.382 204.266 237.012 201.443 237.845C195.063 239.688 186.834 241.349 177.307 241.307C167.276 241.26 158.723 239.416 152.296 237.384C149.52 236.509 147.352 233.88 146.933 230.831L146.241 226.033C146.105 225.017 146.933 224.279 147.86 224.698C154.334 227.558 164.411 231.02 176.757 231.109C189.239 231.245 199.641 227.877 206.298 225.112C207.225 224.698 208.1 225.436 207.917 226.494L207.084 231.339Z" fill="#A6A6A6"/>
<path d="M207.084 231.339C206.576 234.382 204.266 237.012 201.443 237.845C195.063 239.688 186.834 241.349 177.307 241.307C167.276 241.26 158.723 239.416 152.296 237.384C149.52 236.509 147.352 233.88 146.933 230.831L146.241 226.033C146.105 225.017 146.933 224.279 147.86 224.698C154.334 227.558 164.411 231.02 176.757 231.109C189.239 231.245 199.641 227.877 206.298 225.112C207.225 224.698 208.1 225.436 207.917 226.494L207.084 231.339Z" stroke="#BFBFBF" stroke-width="0.72" stroke-miterlimit="8"/>
<path fill-rule="evenodd" clip-rule="evenodd" d="M205.36 241.385C204.899 244.166 202.725 246.528 200.091 247.267C194.036 248.933 186.226 250.415 177.165 250.373C167.643 250.326 159.508 248.613 153.406 246.759C150.772 245.973 148.739 243.611 148.32 240.83L147.718 236.524C147.582 235.597 148.409 234.948 149.242 235.319C155.344 237.912 164.914 241.065 176.604 241.154C188.437 241.296 198.284 238.284 204.569 235.78C205.449 235.408 206.282 236.058 206.093 237.032L205.355 241.385H205.36Z" fill="#A6A6A6"/>
<path d="M205.36 241.385C204.899 244.166 202.725 246.528 200.091 247.267C194.036 248.933 186.226 250.415 177.165 250.373C167.643 250.326 159.508 248.613 153.406 246.759C150.772 245.973 148.739 243.611 148.32 240.83L147.718 236.524C147.582 235.597 148.409 234.948 149.242 235.319C155.344 237.912 164.914 241.065 176.604 241.154C188.437 241.296 198.284 238.284 204.569 235.78C205.449 235.408 206.282 236.058 206.093 237.032L205.355 241.385H205.36Z" stroke="#BFBFBF" stroke-width="0.72" stroke-miterlimit="8"/>
<path fill-rule="evenodd" clip-rule="evenodd" d="M87.9385 69.3439C87.8023 69.3439 87.6609 69.2968 87.5247 69.2968L65.9711 67.076L63.2422 57.9569L88.0328 62.6814L111.991 56.2441L113.426 61.5239L89.0542 69.2549C88.6404 69.302 88.2685 69.3492 87.9437 69.3492L87.9385 69.3439Z" fill="#FDAE95"/>
<path fill-rule="evenodd" clip-rule="evenodd" d="M64.3201 56.2912L87.3089 61.5552C90.9911 62.8227 106.013 55.8407 106.165 57.4068C106.799 58.8524 110.79 60.7433 107.799 63.0008C104.808 65.2583 93.0705 71.638 88.2151 70.9413L62.0103 66.0492C59.4228 64.8969 58.3124 61.8642 59.559 59.3291C60.5751 57.213 62.0103 55.694 64.3201 56.2912Z" fill="#2A93FB"/>
<path fill-rule="evenodd" clip-rule="evenodd" d="M106.287 61.9617C107.717 64.2401 112.662 64.7063 115.019 63.1716C117.423 61.6369 118.162 58.5204 116.726 56.242C115.296 53.9635 111.41 53.6859 109.011 55.2206C106.654 56.7553 104.805 59.6832 106.282 61.9617H106.287Z" fill="#FDAE95"/>
<path fill-rule="evenodd" clip-rule="evenodd" d="M38.4301 179.819L42.2327 168.987L35.5545 167.641L31.1914 180.002L38.4301 179.819Z" fill="#FDAE95"/>
<path fill-rule="evenodd" clip-rule="evenodd" d="M73.9149 150.729C73.8677 148.964 73.7315 147.198 73.543 145.48C75.9943 145.711 78.4456 145.805 80.8969 146.13C81.0802 147.523 81.4521 149.011 81.4521 150.451C78.9536 150.634 76.4552 150.823 73.9096 150.729H73.9149Z" fill="#FDAE95"/>
<path fill-rule="evenodd" clip-rule="evenodd" d="M50.641 101.832C57.7225 101.502 68.612 104.467 68.612 104.467L69.2457 106.965H69.2615C74.6197 112.235 79.009 118.798 84.4616 123.789C85.1111 124.392 85.4306 124.994 85.572 125.638C85.7553 126.377 85.572 127.026 85.5249 127.162C85.153 128.55 83.8593 137.151 82.1517 149.402C80.9942 149.68 79.5171 149.91 77.8096 149.91C76.102 149.91 74.6669 149.727 73.5146 149.496C73.0065 146.212 72.6817 142.284 72.8232 137.848C72.9175 133.872 73.3784 130.31 73.9336 127.262C71.0423 125.633 68.1667 123.716 65.3069 121.699L60.1057 117.933L56.7902 138.638C56.6959 139.288 56.5598 139.932 56.2821 140.535L40.3854 178.771H30.4492L43.7585 138.544L44.7589 114.173H44.6804C44.6804 114.173 42.5067 106.688 45.3718 103.493C46.3408 102.419 48.2787 101.942 50.641 101.832Z" fill="#003860"/>
<path fill-rule="evenodd" clip-rule="evenodd" d="M73.8302 150.452C73.5055 151.94 73.0917 153.521 72.6727 154.962C72.4893 155.517 72.4422 155.889 72.3008 156.449C73.2226 156.449 74.1497 156.402 75.0716 156.402C75.2078 156.219 75.1659 156.125 75.2078 156.03C75.2078 156.03 75.2549 155.889 75.4382 155.8C75.852 155.569 85.8825 157.057 91.6545 156.313C92.4402 156.219 95.7662 155.8 95.8605 154.873C95.9967 153.432 88.2814 151.573 81.4932 150.18C78.8585 150.274 76.4125 150.599 73.825 150.457L73.8302 150.452Z" fill="#162836"/>
<path fill-rule="evenodd" clip-rule="evenodd" d="M31.1914 179.758L30.2224 185.629C30.1752 186.185 30.1281 186.787 30.0391 187.342C30.9138 187.295 31.7937 187.206 32.6684 187.159C32.6684 186.976 32.7156 186.745 32.8989 186.509C33.7317 185.399 36.3611 186.415 40.0485 186.787C41.8504 186.97 43.0917 186.928 45.124 186.787C48.1672 186.604 52.5512 186.326 52.6926 185.399C52.8288 184.66 50.2937 183.136 38.4824 179.805L31.1914 179.758Z" fill="#162836"/>
<path fill-rule="evenodd" clip-rule="evenodd" d="M51.2672 57.2663C43.9081 61.5246 44.1857 67.5376 43.5362 75.0801C41.6873 86.2785 39.8802 97.4298 38.0312 108.628C44.1385 110.2 48.7216 109.786 51.7753 109.136C56.217 108.209 61.769 107.01 65.2417 105.711C65.7498 105.528 67.3683 104.878 69.4529 105.061C70.5162 105.156 71.349 105.433 71.8152 105.569C71.1186 92.6582 70.4743 79.7941 69.7777 66.8881C69.8248 63.4155 65.9384 55.3649 60.9362 55.5063C61.0305 55.5063 57.186 53.7936 51.262 57.2663H51.2672Z" fill="#2A93FB"/>
<path fill-rule="evenodd" clip-rule="evenodd" d="M57.4026 58.6325H58.6545C60.3253 58.6325 61.6662 57.2864 61.6662 55.6207L61.7605 42.7305L54.438 42.7776L54.3438 55.6207C54.3438 57.2445 55.6899 58.6325 57.4026 58.6325Z" fill="#FDAE95"/>
<path fill-rule="evenodd" clip-rule="evenodd" d="M76.4681 83.2668C75.9129 83.2668 75.3106 83.1254 74.8025 82.8531L56.732 75.9182L54.8359 64.3164L77.1124 76.1015L100.085 74.902L100.735 80.4018L76.8872 83.2197C76.751 83.2668 76.6095 83.2668 76.4734 83.2668H76.4681Z" fill="#FDAE95"/>
<path fill-rule="evenodd" clip-rule="evenodd" d="M54.3438 49.9799C54.3438 49.9799 56.3394 54.9401 61.6767 54.5734V50.666L54.3438 49.9746V49.9799Z" fill="#F09B84"/>
<path fill-rule="evenodd" clip-rule="evenodd" d="M68.3695 33.334C68.3695 33.334 75.8595 34.2139 69.0137 41.9869L67.0391 36.6652L68.3695 33.334Z" fill="black"/>
<path fill-rule="evenodd" clip-rule="evenodd" d="M60.6849 52.8607C65.3833 52.8607 69.254 48.9795 69.254 44.2707V36.0054C69.254 33.9732 67.5936 32.2656 65.5247 32.2656H55.8504C53.8234 32.2656 52.1211 33.926 52.1211 36.0054V44.2707C52.1682 48.9795 55.9918 52.8607 60.6902 52.8607H60.6849Z" fill="#FDAE95"/>
<path fill-rule="evenodd" clip-rule="evenodd" d="M62.5918 26.8287C58.2444 26.2264 56.1178 25.624 54.0384 27.0121C51.7286 28.5363 51.0791 31.4956 50.8486 33.2556C50.4767 33.2084 49.4606 33.2084 48.5806 34.3188C47.5173 35.7069 50.1048 41.9032 50.1048 41.9032H53.478C53.478 41.9032 58.1501 39.3576 56.1597 34.1355C58.2392 34.9683 65.9126 37.8805 72.7584 34.1355C74.6545 33.0722 78.0748 30.6681 77.6138 29.0024C77.1529 27.2897 73.1303 28.3529 62.5865 26.8287H62.5918Z" fill="black"/>
<path fill-rule="evenodd" clip-rule="evenodd" d="M48.3242 43.0142C48.3242 44.7217 49.707 46.1045 51.4145 46.1045C53.1221 46.1045 54.5048 44.7217 54.5048 43.0142C54.5048 41.3066 53.1221 39.9238 51.4145 39.9238C49.707 39.971 48.3242 41.3538 48.3242 43.0142Z" fill="#FDAE95"/>
<path fill-rule="evenodd" clip-rule="evenodd" d="M57.556 38.8541C57.7813 38.6236 58.0536 38.4403 58.326 38.2989C58.5984 38.1627 58.9179 38.0213 59.2321 37.9741C59.5516 37.8798 59.8659 37.8327 60.1854 37.8798C60.5049 37.8798 60.8192 37.9741 61.0916 38.1574C60.4578 38.2046 59.913 38.2936 59.3212 38.435C58.7764 38.5712 58.1846 38.7126 57.5508 38.8488L57.556 38.8541Z" fill="black"/>
<path fill-rule="evenodd" clip-rule="evenodd" d="M68.4292 38.7703C67.785 38.676 67.1879 38.5346 66.596 38.3984C65.9989 38.257 65.4489 38.1627 64.8047 38.1627C65.0823 37.9741 65.4018 37.8798 65.7213 37.8798C66.0408 37.8327 66.3656 37.8798 66.6851 37.9741C67.0046 38.0684 67.3293 38.1627 67.6017 38.2989C67.9212 38.346 68.1988 38.5345 68.4292 38.765V38.7703Z" fill="black"/>
<path fill-rule="evenodd" clip-rule="evenodd" d="M60.2814 40.584C60.2814 41.3592 59.9148 41.9825 59.4591 41.9825C59.0034 41.9825 58.6367 41.354 58.6367 40.584C58.6367 39.8141 59.0034 39.1855 59.4591 39.1855C59.9148 39.1855 60.2814 39.8141 60.2814 40.584Z" fill="black"/>
<path fill-rule="evenodd" clip-rule="evenodd" d="M67.4455 40.584C67.4455 41.3592 67.0788 41.9825 66.6231 41.9825C66.1674 41.9825 65.8008 41.354 65.8008 40.584C65.8008 39.8141 66.1674 39.1855 66.6231 39.1855C67.0788 39.1855 67.4455 39.8141 67.4455 40.584Z" fill="black"/>
<path fill-rule="evenodd" clip-rule="evenodd" d="M60.6914 47.0258C60.6914 47.0258 63.766 50.0428 65.9659 46.6016L60.6914 47.0258Z" fill="white"/>
<path fill-rule="evenodd" clip-rule="evenodd" d="M63.1428 40.2507C63.19 40.7535 63.279 41.2092 63.4676 41.6178C63.5619 41.8482 63.6509 42.0263 63.7923 42.2097C63.9285 42.393 64.0699 42.5763 64.2061 42.8015C64.3423 43.032 64.4837 43.2572 64.4837 43.5767C64.4837 43.76 64.3475 43.9434 64.2532 44.0324C64.1171 44.1215 64.0228 44.1686 63.8814 44.2157C63.6509 44.3048 63.3733 44.4462 63.0486 44.3048C62.9124 44.2576 62.8181 44.0743 62.771 43.9853C62.7238 43.8491 62.771 43.7129 62.771 43.6186C62.8181 43.8491 62.9071 44.1215 63.0957 44.1215C63.279 44.1686 63.4676 44.0324 63.6509 43.9381C63.8342 43.8019 64.0228 43.7077 63.9756 43.5715C63.9756 43.4353 63.8814 43.252 63.7452 43.0687C63.609 42.8853 63.4676 42.702 63.3314 42.4768C63.1952 42.2463 63.1009 42.0211 63.0538 41.7487C63.0066 41.1988 63.0066 40.7012 63.1481 40.2402L63.1428 40.2507Z" fill="#EF9E89"/>
<path fill-rule="evenodd" clip-rule="evenodd" d="M58.0547 58.8022L59.0132 61.7039L61.3807 63.8829C61.5012 75.5527 61.6216 87.2226 61.7473 98.8924L66.849 101.978L68.8551 97.4416L62.4806 64.0662L63.0254 60.5726C62.3549 60.0907 61.8259 57.8803 61.1555 57.3984C60.396 58.4093 59.2279 58.4722 58.0599 58.8022H58.0547Z" fill="#0070C0"/>
<path fill-rule="evenodd" clip-rule="evenodd" d="M99.2911 79.6637C101.041 81.7064 105.922 81.5231 108.091 79.6637C110.254 77.8042 110.579 74.6458 108.871 72.5978C107.122 70.5551 103.298 70.7856 101.135 72.645C98.9716 74.5044 97.5417 77.6157 99.2911 79.6637Z" fill="#FDAE95"/>
<path fill-rule="evenodd" clip-rule="evenodd" d="M57.0393 63.3732L78.3992 74.8021C77.6764 74.9855 99.0676 73.896 98.3448 74.0793C99.2195 75.6192 102.362 80.2914 98.8895 82.2241C95.4168 84.1569 83.0032 87.7081 77.315 86.2049C71.6267 84.7016 57.0498 77.2272 51.5449 72.4661C49.0936 70.7114 48.5855 67.2544 50.4345 64.8974C52.0058 62.9123 54.7347 62.268 57.0446 63.3732H57.0393Z" fill="#2A93FB"/>
<path fill-rule="evenodd" clip-rule="evenodd" d="M333.514 225.749L330.251 216.834L324.945 217.159L328.575 227.875L333.514 225.749Z" fill="#FDAE95"/>
<path fill-rule="evenodd" clip-rule="evenodd" d="M333.596 225.734L334.34 230.181C334.34 230.831 333.832 231.339 333.182 231.339H321.224C320.669 231.339 320.25 230.878 320.25 230.365C320.25 230.04 320.391 229.762 320.622 229.579L327.667 225.734H333.601H333.596Z" fill="#162836"/>
<path fill-rule="evenodd" clip-rule="evenodd" d="M313.818 226.442L312.382 217.035L307.145 216.338L308.58 227.547L313.818 226.442Z" fill="#FDAE95"/>
<path fill-rule="evenodd" clip-rule="evenodd" d="M313.992 225.622L314.637 230.1C314.637 230.744 314.081 231.253 313.437 231.253L301.516 230.975C300.961 230.975 300.547 230.514 300.547 229.959C300.547 229.634 300.683 229.356 300.961 229.173L308.026 225.48L313.987 225.617L313.992 225.622Z" fill="#162836"/>
<path fill-rule="evenodd" clip-rule="evenodd" d="M319.566 166.837C321.337 166.764 322.861 166.921 323.772 167.476C325.951 168.759 325.15 173.233 324.61 175.391L324.286 176.559L324.328 176.569L325.249 194.99L333.839 222.321L325.297 222.599L315.926 195.31L315.093 188.527L314.035 199.05C313.899 206.393 313.805 213.779 313.663 221.117C311.123 221.441 308.541 221.719 306.001 222.039C305.587 214.051 305.168 206.063 304.754 198.076L305.079 175.731L306.697 169.362C306.697 169.362 314.255 167.052 319.572 166.832L319.566 166.837Z" fill="#003860"/>
<path fill-rule="evenodd" clip-rule="evenodd" d="M289.584 136.472C290.831 136.749 292.036 134.486 291.02 133.743C289.307 132.496 287.18 130.6 286.814 128.798C286.164 125.703 281.681 130.783 286.028 134.623C287.416 135.869 288.615 136.241 289.59 136.472H289.584Z" fill="#FDAE95"/>
<path fill-rule="evenodd" clip-rule="evenodd" d="M290.974 133.857L292.807 138.425L290.288 140.782L287.035 134.46L290.974 133.857Z" fill="#FDAE95"/>
<path fill-rule="evenodd" clip-rule="evenodd" d="M298.51 155.168C297.819 154.891 297.217 154.383 296.803 153.691L286.961 138.496L293.063 134.846L301.292 147.364L314.879 142.283L315.8 148.841L301.244 155.168C300.365 155.54 299.348 155.54 298.516 155.168H298.51Z" fill="#2A93FB"/>
<path fill-rule="evenodd" clip-rule="evenodd" d="M304.843 141.349C305.351 139.087 307.289 137.468 309.551 137.096C312.783 136.588 318.875 135.897 321.363 137.468C321.363 137.468 325.375 139.087 324.778 150.547C324.5 155.675 327.082 170.508 327.082 170.508C327.082 170.508 316.01 175.039 305.12 169.168L304.612 145.047C304.659 145.047 304.429 143.246 304.843 141.349Z" fill="#2A93FB"/>
<path fill-rule="evenodd" clip-rule="evenodd" d="M313.322 139.219L312.704 141.094L311.169 142.503C311.091 150.05 311.012 157.603 310.933 165.151L307.623 167.147L306.324 164.214L310.462 142.623L310.106 140.366C310.541 140.051 310.886 138.627 311.316 138.312C311.808 138.967 312.568 139.009 313.327 139.224L313.322 139.219Z" fill="#0070C0"/>
<path fill-rule="evenodd" clip-rule="evenodd" d="M299.724 135.902C299.724 135.902 297.362 129.654 293.518 131.351C289.673 133.053 293.423 134.289 294.303 135.808C295.183 137.463 295.555 138.474 295.555 138.474L299.724 135.902Z" fill="#FDAE95"/>
<path fill-rule="evenodd" clip-rule="evenodd" d="M306.484 156.931C306.348 156.931 306.16 156.931 306.024 156.883C304.913 156.747 303.944 156.098 303.394 155.129L294.207 138.771L300.393 135.262L307.27 147.508L316.777 137.849L321.81 142.841L308.978 155.825C308.333 156.564 307.453 156.936 306.484 156.936V156.931Z" fill="#2A93FB"/>
<path fill-rule="evenodd" clip-rule="evenodd" d="M316.67 136.714L311.762 137.405L313.113 130.402L318.021 131.047L316.67 136.714Z" fill="#FDAE95"/>
<path fill-rule="evenodd" clip-rule="evenodd" d="M317.685 132.504C317.685 132.504 315.998 135.814 312.164 135.065L313.102 130.314L317.685 132.504Z" fill="#F09B84"/>
<path fill-rule="evenodd" clip-rule="evenodd" d="M309.171 121.952C309.171 121.952 308.432 114.598 312.638 115.567C312.638 115.567 313.932 111.775 318.049 112.885C322.166 113.996 321.056 117.463 322.255 118.574C323.46 119.637 326.278 121.486 324.382 124.215C322.486 126.991 321.192 127.593 321.192 127.593L309.166 121.952H309.171Z" fill="black"/>
<path fill-rule="evenodd" clip-rule="evenodd" d="M311.228 133.251C308.122 132.046 306.598 128.579 307.803 125.478L310.165 119.323C311.37 116.223 314.842 114.693 317.948 115.898C321.054 117.103 323.322 120.806 322.165 123.906L319.803 130.061C318.551 133.162 314.292 134.455 311.234 133.256L311.228 133.251Z" fill="#FDAE95"/>
<path fill-rule="evenodd" clip-rule="evenodd" d="M322.32 129.098C321.901 130.119 320.743 130.675 319.727 130.256C318.711 129.837 318.151 128.679 318.57 127.658C318.989 126.636 320.146 126.081 321.162 126.5C322.226 126.919 322.739 128.077 322.32 129.098Z" fill="#FDAE95"/>
<path fill-rule="evenodd" clip-rule="evenodd" d="M316.616 136.658L310.766 141.027L311.777 137.219L316.616 136.658Z" fill="#FDAE95"/>
<path fill-rule="evenodd" clip-rule="evenodd" d="M316.7 122.9C316.559 122.675 316.375 122.491 316.187 122.355C315.998 122.219 315.815 122.083 315.579 121.994C315.344 121.905 315.16 121.81 314.925 121.769C314.689 121.721 314.458 121.769 314.223 121.858C314.642 121.947 315.061 122.13 315.438 122.313C315.857 122.497 316.276 122.722 316.695 122.905L316.7 122.9Z" fill="black"/>
<path fill-rule="evenodd" clip-rule="evenodd" d="M309.536 121.42C309.919 121.42 310.348 121.378 310.731 121.378C311.113 121.378 311.495 121.336 311.925 121.42C311.784 121.257 311.59 121.174 311.401 121.132C311.213 121.09 310.972 121.09 310.778 121.09C310.584 121.09 310.348 121.132 310.155 121.174C309.966 121.216 309.725 121.299 309.531 121.42H309.536Z" fill="black"/>
<path fill-rule="evenodd" clip-rule="evenodd" d="M314.438 123.932C314.297 124.581 314.485 125.184 314.815 125.278C315.145 125.372 315.522 124.859 315.664 124.21C315.805 123.56 315.617 122.958 315.287 122.911C314.957 122.816 314.58 123.282 314.438 123.932Z" fill="black"/>
<path fill-rule="evenodd" clip-rule="evenodd" d="M309.793 122.843C309.605 123.446 309.699 123.954 309.982 124.048C310.265 124.142 310.642 123.676 310.783 123.079C310.925 122.477 310.831 121.969 310.548 121.922C310.312 121.874 309.982 122.293 309.793 122.849V122.843Z" fill="black"/>
<path fill-rule="evenodd" clip-rule="evenodd" d="M313.076 129.192C313.076 129.192 310.844 132.088 309.121 128.584L313.076 129.192Z" fill="white"/>
<path fill-rule="evenodd" clip-rule="evenodd" d="M312.581 123.23C312.445 123.602 312.308 123.969 312.125 124.294C312.036 124.43 311.942 124.618 311.806 124.708C311.716 124.844 311.533 124.985 311.397 125.121C311.261 125.305 311.125 125.446 311.03 125.724C310.983 125.86 311.03 126.048 311.119 126.137C311.166 126.232 311.256 126.321 311.303 126.368C311.439 126.462 311.575 126.646 311.806 126.598C311.942 126.551 311.989 126.462 312.031 126.368C312.078 126.274 312.078 126.137 312.12 126.043C312.031 126.226 311.936 126.457 311.8 126.415C311.664 126.415 311.575 126.279 311.434 126.137C311.345 126.001 311.25 125.86 311.297 125.766C311.345 125.671 311.434 125.488 311.57 125.352C311.706 125.216 311.795 125.074 311.978 124.938C312.115 124.755 312.204 124.566 312.298 124.383C312.481 124.058 312.57 123.644 312.57 123.23H312.581Z" fill="#EF9E89"/>
<path fill-rule="evenodd" clip-rule="evenodd" d="M321.973 118.926C321.696 117.91 321.282 116.983 320.496 116.616C318.186 115.417 315.971 114.584 315.971 114.584L311.356 116.574L309.371 120.319V121.796L310.434 119.068C310.434 119.068 310.806 117.68 312.467 118.235C313.713 118.649 313.341 121.288 316.992 123.043C318.605 123.829 319.81 124.012 320.638 123.97L319.574 126.699L321.329 126.421L323.545 122.168L321.973 118.931V118.926Z" fill="black"/>
</svg>
